<svg width="48" height="48" viewBox="0 0 48 48" fill="none" xmlns="http://www.w3.org/2000/svg">
<g clip-path="url(#clip0_0_3228)">
<path d="M0 24C0 10.7452 10.7452 0 24 0C37.2548 0 48 10.7452 48 24C48 37.2548 37.2548 48 24 48C10.7452 48 0 37.2548 0 24Z" fill="#F26798"/>
<path fill-rule="evenodd" clip-rule="evenodd" d="M36.8 23.9822C36.8 24.8478 36.7118 25.7123 36.5387 26.5549C36.3699 27.3775 36.1199 28.1851 35.7924 28.9572C35.4724 29.7155 35.0755 30.4464 34.6118 31.1279C34.1549 31.8051 33.6286 32.4405 33.0504 33.0196C32.471 33.5963 31.8335 34.1212 31.1566 34.58C30.4728 35.0405 29.7409 35.4369 28.9821 35.7583C28.209 36.0841 27.3995 36.3338 26.5776 36.5023C25.7339 36.6758 24.8663 36.7644 23.9994 36.7644C23.1318 36.7644 22.2643 36.6758 21.4218 36.5023C20.5986 36.3338 19.7892 36.0841 19.0166 35.7583C18.2579 35.4369 17.5253 35.0405 16.8415 34.58C16.1646 34.1212 15.5271 33.5963 14.9489 33.0196C14.3702 32.4405 13.8439 31.8051 13.3863 31.1279C12.9251 30.4464 12.5275 29.7155 12.2063 28.9572C11.8787 28.1851 11.6281 27.3775 11.4587 26.5549C11.2875 25.7123 11.2 24.8478 11.2 23.9822C11.2 23.1159 11.2874 22.2496 11.4588 21.4089C11.6282 20.5862 11.8788 19.7774 12.2063 19.0066C12.5276 18.2477 12.9251 17.5162 13.3864 16.8346C13.8439 16.1568 14.3702 15.5227 14.949 14.9429C15.5271 14.3661 16.1647 13.8425 16.8416 13.3844C17.5253 12.9219 18.2579 12.5256 19.0167 12.2036C19.7892 11.8771 20.5986 11.6268 21.4218 11.4596C22.2643 11.2874 23.1319 11.2 23.9994 11.2C24.8663 11.2 25.7339 11.2874 26.5776 11.4596C27.3995 11.6269 28.209 11.8771 28.9822 12.2036C29.7409 12.5256 30.4729 12.9219 31.1566 13.3844C31.8335 13.8425 32.4711 14.3661 33.0505 14.9429C33.6286 15.5227 34.1549 16.1568 34.6118 16.8346C35.0755 17.5162 35.4724 18.2477 35.7924 19.0066C36.1199 19.7774 36.3699 20.5862 36.5387 21.4089C36.7118 22.2496 36.8 23.1159 36.8 23.9822ZM19.3354 14.109C16.2871 15.5465 14.0119 18.3513 13.3025 21.7316L13.313 21.7317C13.6866 21.7351 18.2011 21.7769 23.3943 20.399C21.5024 17.0424 19.481 14.3032 19.3354 14.109ZM13.0769 23.634C13.2707 23.6414 18.6716 23.7625 24.3 22.0799C24.6131 22.6928 24.9126 23.3144 25.1869 23.9348C25.0432 23.976 24.8981 24.0184 24.7556 24.0659C18.8566 25.9707 15.8652 31.2702 15.8689 31.2758C14.1276 29.3428 13.0681 26.7864 13.0681 23.9822C13.0681 23.9013 13.0708 23.8221 13.0735 23.7423L13.0735 23.7423L13.0735 23.7423L13.0735 23.7422L13.0735 23.7422L13.0735 23.7422C13.0747 23.7063 13.0759 23.6703 13.0769 23.634ZM31.2185 15.7898C29.294 14.0953 26.767 13.0674 23.9994 13.0674C23.1112 13.0674 22.2493 13.1748 21.4236 13.3732L21.4414 13.397L21.4414 13.397L21.4414 13.397L21.4414 13.397C21.7004 13.7434 23.6921 16.4073 25.5101 19.7406C29.6009 18.2091 31.166 15.8684 31.2175 15.7913L31.2185 15.7898ZM25.9054 25.752L25.932 25.7435C27.4701 29.7354 28.1052 33.0783 28.267 34.032C26.9551 34.5892 25.5132 34.897 23.9994 34.897C21.4642 34.897 19.1366 34.0276 17.2809 32.5865C17.3036 32.5371 19.4099 28.0124 25.8595 25.7672C25.8746 25.7617 25.89 25.7568 25.9054 25.752ZM30.1078 33.0346C32.5623 31.3807 34.3055 28.7543 34.7918 25.7122C34.5668 25.6398 31.5085 24.673 27.9802 25.2379C29.414 29.1725 29.9966 32.3768 30.1078 33.0346ZM27.0776 22.9499C26.8508 22.4174 26.6051 21.8876 26.3514 21.3671C30.6395 19.6183 32.3978 17.1098 32.4405 17.049L32.4411 17.0481C33.9749 18.9073 34.9018 21.2822 34.9268 23.8698C34.9238 23.8692 34.9195 23.8683 34.9139 23.8671C34.627 23.8074 30.9972 23.0525 27.3139 23.5153C27.2371 23.3281 27.1583 23.1409 27.0776 22.9499Z" fill="white"/>
</g>
<defs>
<clipPath id="clip0_0_3228">
<rect width="48" height="48" fill="white"/>
</clipPath>
</defs>
</svg>
