<svg width="48" height="48" viewBox="0 0 48 48" fill="none" xmlns="http://www.w3.org/2000/svg">
<g clip-path="url(#clip0_0_3241)">
<circle cx="24" cy="24" r="24" fill="url(#paint0_linear_0_3241)"/>
<path fill-rule="evenodd" clip-rule="evenodd" d="M30.467 8H17.533C12.2765 8 8 12.2765 8 17.533V30.467C8 35.7235 12.2765 40 17.533 40H30.467C35.7235 40 40 35.7235 40 30.467V17.533C39.9999 12.2765 35.7235 8 30.467 8ZM36.7808 30.467C36.7808 33.954 33.954 36.7808 30.467 36.7808H17.533C14.046 36.7808 11.2192 33.954 11.2192 30.467V17.533C11.2192 14.0459 14.046 11.2192 17.533 11.2192H30.467C33.954 11.2192 36.7808 14.0459 36.7808 17.533V30.467ZM24 15.7236C19.4364 15.7236 15.7236 19.4364 15.7236 23.9999C15.7236 28.5634 19.4364 32.2763 24 32.2763C28.5636 32.2763 32.2763 28.5635 32.2763 23.9999C32.2763 19.4363 28.5636 15.7236 24 15.7236ZM24 29.0571C21.207 29.0571 18.9428 26.793 18.9428 24C18.9428 21.207 21.207 18.9428 24 18.9428C26.793 18.9428 29.0571 21.207 29.0571 24C29.0571 26.7929 26.7929 29.0571 24 29.0571ZM34.2756 15.7858C34.2756 16.8811 33.3877 17.769 32.2924 17.769C31.1971 17.769 30.3092 16.8811 30.3092 15.7858C30.3092 14.6906 31.1971 13.8027 32.2924 13.8027C33.3877 13.8027 34.2756 14.6906 34.2756 15.7858Z" fill="white"/>
</g>
<defs>
<linearGradient id="paint0_linear_0_3241" x1="9.75" y1="48" x2="31.5" y2="6.22358e-07" gradientUnits="userSpaceOnUse">
<stop stop-color="#FBD06F"/>
<stop offset="0.3" stop-color="#F16C2E"/>
<stop offset="0.6" stop-color="#C82E96"/>
<stop offset="1" stop-color="#4E6AD6"/>
</linearGradient>
<clipPath id="clip0_0_3241">
<rect width="48" height="48" fill="white"/>
</clipPath>
</defs>
</svg>
