<svg width="48" height="48" viewBox="0 0 48 48" fill="none" xmlns="http://www.w3.org/2000/svg">
<g clip-path="url(#clip0_0_3231)">
<path d="M0 24C0 10.7452 10.7452 0 24 0C37.2548 0 48 10.7452 48 24C48 37.2548 37.2548 48 24 48C10.7452 48 0 37.2548 0 24Z" fill="#00B900"/>
<path d="M24.4 11.2C16.2399 11.2 9.6001 16.5489 9.6001 23.1237C9.6001 29.018 14.8653 33.9543 21.9776 34.8877C22.4596 34.9908 23.1156 35.2032 23.2815 35.6122C23.4308 35.9837 23.3791 36.5657 23.3292 36.9408C23.3292 36.9408 23.1556 37.9777 23.1181 38.1985C23.0537 38.57 22.8208 39.6514 24.4 38.9906C25.9797 38.3298 32.9234 34.0081 36.0284 30.4598C38.1728 28.1248 39.2001 25.7551 39.2001 23.1237C39.2001 16.5489 32.5611 11.2 24.4 11.2Z" fill="white"/>
<path d="M20.2859 20C20.1282 20 20 20.1323 20 20.2949V26.9051C20 27.068 20.1282 27.2 20.2859 27.2H21.3144C21.4721 27.2 21.6 27.068 21.6 26.9051V20.2949C21.6 20.1323 21.4721 20 21.3144 20H20.2859Z" fill="#00B900"/>
<path d="M28.4993 20H27.4165C27.2505 20 27.1159 20.1323 27.1159 20.2949V24.2221L24.0336 20.1312C24.0265 20.1207 24.0185 20.1108 24.0103 20.1012L24.0082 20.0995C24.0023 20.0928 23.9964 20.087 23.9901 20.0811C23.9884 20.0794 23.9866 20.0779 23.9845 20.0762C23.9795 20.0715 23.9742 20.0672 23.9685 20.0631C23.9662 20.0608 23.9635 20.059 23.9608 20.057C23.9555 20.0535 23.9505 20.0497 23.9452 20.0465C23.9422 20.0445 23.9392 20.0427 23.936 20.0413C23.9307 20.0381 23.9253 20.0349 23.92 20.0323C23.9168 20.0308 23.9138 20.0291 23.9105 20.0279C23.9049 20.0253 23.8993 20.0227 23.8934 20.0206C23.8898 20.0195 23.8869 20.0183 23.8836 20.0172C23.8777 20.0151 23.8718 20.0131 23.8656 20.0116C23.8623 20.0105 23.8588 20.0099 23.8552 20.0087C23.8493 20.0076 23.8437 20.0061 23.838 20.0049C23.8339 20.0044 23.8295 20.0038 23.8253 20.0035C23.82 20.0023 23.8147 20.002 23.8093 20.0015C23.8043 20.0009 23.7993 20.0009 23.7939 20.0006C23.7901 20.0006 23.7871 20 23.7833 20H22.7008C22.5348 20 22.3999 20.1323 22.3999 20.2949V26.9051C22.3999 27.068 22.5348 27.2 22.7008 27.2H23.7833C23.9496 27.2 24.0842 27.068 24.0842 26.9051V22.9791L27.1703 27.0752C27.1916 27.1049 27.218 27.129 27.2467 27.1482C27.2475 27.1488 27.2487 27.1497 27.2496 27.1506C27.2558 27.1543 27.262 27.1581 27.2683 27.1616C27.2712 27.1634 27.2739 27.1645 27.2768 27.166C27.2813 27.1686 27.2863 27.1709 27.291 27.173C27.2961 27.175 27.3005 27.177 27.3058 27.1791C27.3088 27.1802 27.3118 27.1814 27.3147 27.1823C27.3218 27.1849 27.3283 27.1869 27.3351 27.1889C27.3366 27.1889 27.3381 27.1895 27.3396 27.1898C27.3641 27.1962 27.3899 27.2 27.4165 27.2H28.4993C28.6656 27.2 28.7999 27.068 28.7999 26.9051V20.2949C28.7999 20.1323 28.6656 20 28.4993 20Z" fill="#00B900"/>
<path d="M18.9075 25.5447H16.0408V20.2955C16.0408 20.1323 15.9097 20 15.7482 20H14.6929C14.5311 20 14.3999 20.1323 14.3999 20.2955V26.9043V26.9048C14.3999 26.9842 14.4313 27.0561 14.4818 27.109C14.4829 27.1104 14.4841 27.1119 14.4858 27.1133C14.4873 27.1148 14.4887 27.116 14.4902 27.1174C14.5429 27.1686 14.6139 27.2 14.6926 27.2H18.9075C19.0693 27.2 19.1999 27.0674 19.1999 26.9043V25.8402C19.1999 25.6771 19.0693 25.5447 18.9075 25.5447Z" fill="#00B900"/>
<path d="M34.1077 21.6553C34.2695 21.6553 34.4001 21.5232 34.4001 21.3598V20.2957C34.4001 20.1326 34.2695 20 34.1077 20H29.8931H29.8925C29.8135 20 29.7422 20.032 29.6895 20.0835C29.6883 20.0846 29.6869 20.0855 29.686 20.0867C29.6843 20.0884 29.6829 20.0901 29.6814 20.0919C29.6312 20.1448 29.6001 20.2164 29.6001 20.2955V20.2957V26.9045V26.9048C29.6001 26.9842 29.6315 27.0561 29.682 27.109C29.6831 27.1104 29.6846 27.1122 29.686 27.1133C29.6872 27.1148 29.6889 27.1162 29.6903 27.1174C29.7428 27.1683 29.814 27.2 29.8925 27.2H34.1077C34.2695 27.2 34.4001 27.0674 34.4001 26.9045V25.8402C34.4001 25.6774 34.2695 25.5447 34.1077 25.5447H31.2413V24.4275H34.1077C34.2695 24.4275 34.4001 24.2952 34.4001 24.132V23.068C34.4001 22.9048 34.2695 22.7722 34.1077 22.7722H31.2413V21.6553H34.1077Z" fill="#00B900"/>
</g>
<defs>
<clipPath id="clip0_0_3231">
<rect width="48" height="48" fill="white"/>
</clipPath>
</defs>
</svg>
