<svg width="48" height="48" viewBox="0 0 48 48" fill="none" xmlns="http://www.w3.org/2000/svg">
<rect width="48" height="48" rx="24" fill="black"/>
<path fill-rule="evenodd" clip-rule="evenodd" d="M21.0795 20.6V19.3519C20.6463 19.2905 20.2095 19.2587 19.772 19.2566C14.4218 19.2566 10.0691 23.6101 10.0691 28.9602C10.0691 32.2422 11.7093 35.1474 14.2115 36.9042C12.5361 35.1124 11.6046 32.7507 11.606 30.2978C11.606 25.0238 15.8348 20.7231 21.0795 20.6Z" fill="#00F2EA"/>
<path fill-rule="evenodd" clip-rule="evenodd" d="M21.3082 34.7289C23.6953 34.7289 25.6426 32.83 25.7313 30.4634L25.7394 9.33755H29.5988C29.5164 8.89645 29.4748 8.44872 29.4742 8H24.2032L24.1944 29.1266C24.1065 31.4924 22.1584 33.3906 19.7721 33.3906C19.0556 33.3909 18.35 33.2164 17.7163 32.882C18.1254 33.4528 18.6646 33.9181 19.2892 34.2392C19.9138 34.5604 20.6059 34.7282 21.3082 34.7289ZM36.8085 16.5083V15.3341C35.3901 15.3355 34.0022 14.9229 32.8149 14.1469C33.8558 15.3454 35.2574 16.1739 36.8092 16.5083" fill="#00F2EA"/>
<path fill-rule="evenodd" clip-rule="evenodd" d="M32.8143 14.146C31.6508 12.8146 31.0099 11.1063 31.0107 9.33813H29.5984C29.7813 10.3154 30.1605 11.2454 30.7133 12.0718C31.2661 12.8983 31.9809 13.6039 32.8143 14.146ZM19.7717 24.5282C18.5969 24.5296 17.4706 24.9969 16.6399 25.8276C15.8092 26.6583 15.342 27.7846 15.3406 28.9594C15.3414 29.7675 15.563 30.5601 15.9815 31.2514C16.4 31.9427 16.9995 32.5065 17.7152 32.8819C17.1702 32.1304 16.8768 31.2259 16.8768 30.2977C16.8779 29.1228 17.3451 27.9963 18.1758 27.1654C19.0066 26.3346 20.133 25.8672 21.3079 25.8658C21.7645 25.8658 22.202 25.9413 22.6154 26.071V20.6893C22.1822 20.628 21.7454 20.5961 21.3079 20.594C21.2309 20.594 21.1554 20.5984 21.0792 20.5999V24.7335C20.6564 24.5989 20.2154 24.5297 19.7717 24.5282Z" fill="#FF004F"/>
<path fill-rule="evenodd" clip-rule="evenodd" d="M36.8085 16.5083V20.6052C34.0748 20.6052 31.5426 19.7309 29.4743 18.2468V28.9596C29.4743 34.3098 25.1224 38.6625 19.7722 38.6625C17.7047 38.6625 15.7874 38.0102 14.2117 36.9035C15.1176 37.8805 16.2156 38.6598 17.4368 39.1927C18.658 39.7255 19.976 40.0003 21.3083 40C26.6585 40 31.0113 35.6474 31.0113 30.2979V19.585C33.1479 21.1214 35.7137 21.9466 38.3454 21.9435V16.671C37.8177 16.671 37.3047 16.6138 36.8085 16.5076" fill="#FF004F"/>
<path fill-rule="evenodd" clip-rule="evenodd" d="M29.4743 28.9594V18.2466C31.6109 19.7831 34.1768 20.6082 36.8085 20.605V16.5081C35.2569 16.1734 33.8555 15.3446 32.8149 14.146C31.9815 13.6039 31.2667 12.8983 30.7139 12.0718C30.1611 11.2454 29.7818 10.3154 29.5989 9.33813H25.7395L25.7314 30.464C25.6427 32.8298 23.6954 34.7288 21.3084 34.7288C20.606 34.7281 19.914 34.5602 19.2894 34.239C18.6648 33.9179 18.1256 33.4527 17.7164 32.8819C17.0006 32.5066 16.401 31.9429 15.9823 31.2516C15.5636 30.5602 15.3419 29.7676 15.3411 28.9594C15.3424 27.7846 15.8097 26.6583 16.6404 25.8276C17.4711 24.9969 18.5974 24.5296 19.7722 24.5282C20.2281 24.5282 20.6656 24.603 21.0797 24.7335V20.5999C15.835 20.723 11.6062 25.0237 11.6062 30.2977C11.6062 32.8482 12.5971 35.17 14.2117 36.904C15.8394 38.0499 17.7817 38.664 19.7722 38.6623C25.1224 38.6623 29.4743 34.3096 29.4743 28.9594Z" fill="white"/>
</svg>
