<svg width="48" height="48" viewBox="0 0 48 48" fill="none" xmlns="http://www.w3.org/2000/svg">
<g clip-path="url(#clip0_0_3235)">
<path d="M24 0C37.2548 0 48 10.7452 48 24C48 37.2548 37.2548 48 24 48C10.7452 48 0 37.2548 0 24C0 10.7452 10.7452 0 24 0Z" fill="#7F4DA0"/>
<path d="M30.3941 20.9584C30.2774 20.0101 29.9859 19.2655 29.4683 18.6059C28.7962 17.7566 27.9372 17.2481 26.6655 16.9464C25.8368 16.7453 25.5019 16.7684 25.2022 17.0422C24.923 17.2987 24.8685 17.8129 25.0819 18.146C25.2319 18.3877 25.405 18.4742 25.8864 18.5687C26.5275 18.6867 26.9706 18.8398 27.3736 19.0702C28.2291 19.5642 28.6274 20.3371 28.6701 21.5885C28.69 22.176 28.7408 22.3566 28.946 22.565C29.3264 22.9459 30.0033 22.8719 30.2904 22.416C30.3958 22.2442 30.4118 22.1694 30.423 21.7705C30.4303 21.5235 30.4197 21.1558 30.3941 20.9584Z" fill="white"/>
<path d="M33.7445 22.0276C33.5756 19.1222 32.4392 16.7847 30.4054 15.1401C29.2595 14.216 27.8744 13.5805 26.3562 13.2715C25.8 13.161 24.7761 13.0714 24.6004 13.1226C24.4346 13.1701 24.2002 13.3496 24.0957 13.5119C23.9851 13.6879 23.9602 14.0809 24.0545 14.3083C24.2067 14.6883 24.4897 14.8225 25.2825 14.8919C26.5046 14.9988 27.7651 15.4282 28.7175 16.0638C29.8048 16.7876 30.6692 17.7775 31.2283 18.9407C31.7115 19.9401 32.0086 21.3804 32.0004 22.6702C31.9976 23.1367 32.0697 23.4001 32.2573 23.5927C32.5404 23.8889 32.9532 23.9536 33.3175 23.7569C33.7212 23.5446 33.8156 23.1719 33.7445 22.0276Z" fill="white"/>
<path d="M37.4524 33.2164C37.3955 33.0503 37.2629 32.7941 37.1682 32.6471C36.5713 31.7458 33.3646 29.2363 31.7636 28.4155C30.8495 27.9459 30.1721 27.7894 29.67 27.9364C29.13 28.0883 28.8458 28.3396 27.9411 29.464C27.5764 29.9146 27.2022 30.3369 27.1027 30.4032C26.8564 30.574 26.3733 30.7116 26.0322 30.7116C25.2412 30.7068 23.806 30.1945 22.7023 29.5209C21.845 28.9991 20.7461 28.0646 19.903 27.1395C18.9082 26.0532 18.231 25.0949 17.6956 24.0133C17.0041 22.6234 16.8289 21.7742 17.1178 21.1527C17.1888 20.9962 17.2836 20.8302 17.3262 20.7779C17.3688 20.7306 17.8141 20.3652 18.3066 19.9667C19.273 19.1983 19.4293 19.0228 19.6093 18.4962C19.8366 17.8272 19.7751 17.1441 19.4246 16.4563C19.1545 15.9345 18.4488 14.796 17.9372 14.0607C17.2599 13.093 15.5736 11.0246 15.2373 10.7447C14.631 10.2514 13.8542 10.1659 12.9968 10.4981C12.0922 10.8491 10.3964 12.2153 9.67167 13.1688C9.01801 14.0322 8.76705 14.6441 8.72911 15.4506C8.69598 16.1147 8.7528 16.3899 9.10332 17.239C11.8459 23.8994 15.9383 29.2173 21.5608 33.4394C24.4975 35.6452 27.5432 37.3246 30.7026 38.4726C32.5451 39.1415 33.3456 39.1746 34.2882 38.6244C34.6861 38.3872 35.6714 37.3767 36.2208 36.6415C37.1303 35.4175 37.4666 34.853 37.5613 34.4023C37.6276 34.094 37.5755 33.558 37.4524 33.2164Z" fill="white"/>
<path d="M37.1554 22.6949C37.0948 21.0514 36.8181 19.7034 36.2411 18.2005C35.6714 16.7221 35.0949 15.7574 34.0062 14.4526C32.9768 13.2291 32.1773 12.5306 30.9092 11.753C29.1401 10.6696 26.9871 9.95265 24.5743 9.65114C23.7515 9.54576 23.5654 9.55329 23.3129 9.72172C22.8237 10.0408 22.8303 10.8367 23.321 11.151C23.4834 11.251 23.6276 11.2874 24.2858 11.3735C25.2961 11.5096 25.9458 11.6378 26.7167 11.8481C29.7397 12.6745 32.0645 14.3636 33.6186 16.8711C34.9193 18.9611 35.4592 21.0512 35.3825 23.7207C35.3558 24.6232 35.3752 24.782 35.5132 24.9988C35.7774 25.403 36.474 25.4829 36.8315 25.1475C37.0538 24.9432 37.0958 24.7897 37.1396 24.0173C37.1606 23.6144 37.1651 23.0195 37.1554 22.6949Z" fill="white"/>
</g>
<defs>
<clipPath id="clip0_0_3235">
<rect width="48" height="48" fill="white"/>
</clipPath>
</defs>
</svg>
