<svg width="38" height="38" viewBox="0 0 38 38" fill="none" xmlns="http://www.w3.org/2000/svg">
<path d="M35.6834 1.96753H28.5227C28.3751 1.96753 28.2335 2.02618 28.1291 2.13057C28.0247 2.23496 27.9661 2.37654 27.9661 2.52417C27.9661 2.6718 28.0247 2.81338 28.1291 2.91777C28.2335 3.02216 28.3751 3.08081 28.5227 3.08081H35.6834C36.3469 3.08081 36.8867 3.6206 36.8867 4.28412V25.4345H1.11328V4.28412C1.11328 3.6206 1.65307 3.08081 2.31659 3.08081H25.925C26.0726 3.08081 26.2142 3.02216 26.3186 2.91777C26.423 2.81338 26.4816 2.6718 26.4816 2.52417C26.4816 2.37654 26.423 2.23496 26.3186 2.13057C26.2142 2.02618 26.0726 1.96753 25.925 1.96753H2.31659C1.03921 1.96753 0 3.00674 0 4.28412V27.2C0 28.4774 1.03921 29.5166 2.31659 29.5166H7.64557C7.7932 29.5166 7.93478 29.4579 8.03917 29.3535C8.14357 29.2491 8.20221 29.1076 8.20221 28.9599C8.20221 28.8123 8.14357 28.6707 8.03917 28.5663C7.93478 28.4619 7.7932 28.4033 7.64557 28.4033H2.31659C1.65307 28.4033 1.11328 27.8635 1.11328 27.2V26.5478H36.8867V27.2C36.8867 27.8635 36.3469 28.4033 35.6834 28.4033H10.2187C10.0711 28.4033 9.92952 28.4619 9.82513 28.5663C9.72074 28.6707 9.66209 28.8123 9.66209 28.9599C9.66209 29.1076 9.72074 29.2491 9.82513 29.3535C9.92952 29.4579 10.0711 29.5166 10.2187 29.5166H13.7222L13.1726 32.6928H12.1568C11.236 32.6928 10.4869 33.4418 10.4869 34.3627C10.4869 35.2835 11.236 36.0326 12.1568 36.0326H25.8432C26.764 36.0326 27.5131 35.2835 27.5131 34.3627C27.5131 33.4418 26.764 32.6928 25.8432 32.6928H24.8274L24.2778 29.5166H35.6833C36.9607 29.5166 37.9999 28.4774 37.9999 27.2V4.28412C38 3.00674 36.9608 1.96753 35.6834 1.96753ZM23.6976 32.6928H22.1822C22.0346 32.6928 21.893 32.7514 21.7886 32.8558C21.6842 32.9602 21.6256 33.1018 21.6256 33.2494C21.6256 33.397 21.6842 33.5386 21.7886 33.643C21.893 33.7474 22.0346 33.806 22.1822 33.806H25.8432C26.1502 33.806 26.3998 34.0557 26.3998 34.3627C26.3998 34.6696 26.1502 34.9193 25.8432 34.9193H12.1568C11.8498 34.9193 11.6002 34.6696 11.6002 34.3627C11.6002 34.0557 11.8498 33.806 12.1568 33.806H19.5837C19.7313 33.806 19.8729 33.7474 19.9773 33.643C20.0816 33.5386 20.1403 33.397 20.1403 33.2494C20.1403 33.1018 20.0816 32.9602 19.9773 32.8558C19.8729 32.7514 19.7313 32.6928 19.5837 32.6928H14.3024L14.852 29.5166H23.1481L23.6976 32.6928Z" fill="black"/>
<path d="M30.1117 16.052C30.009 16.052 29.9083 16.0804 29.8207 16.1341C29.7332 16.1878 29.6621 16.2647 29.6156 16.3562L26.9887 21.5192L24.7719 17.1622C24.7253 17.0707 24.6543 16.9938 24.5667 16.9401C24.4792 16.8864 24.3785 16.858 24.2757 16.858C24.173 16.858 24.0723 16.8864 23.9848 16.9401C23.8972 16.9938 23.8262 17.0707 23.7796 17.1622L22.5779 19.5241H20.6593C20.5117 19.5241 20.3701 19.5827 20.2657 19.6871C20.1613 19.7915 20.1026 19.9331 20.1026 20.0807C20.1026 20.2284 20.1613 20.37 20.2657 20.4743C20.3701 20.5787 20.5117 20.6374 20.6593 20.6374H22.9192C23.022 20.6374 23.1227 20.609 23.2102 20.5553C23.2978 20.5016 23.3688 20.4247 23.4154 20.3332L24.2757 18.6422L26.4925 22.9992C26.5391 23.0908 26.6101 23.1676 26.6977 23.2213C26.7852 23.275 26.886 23.3034 26.9887 23.3034C27.0914 23.3034 27.1921 23.275 27.2797 23.2213C27.3672 23.1676 27.4382 23.0908 27.4848 22.9992L30.1117 17.8362L31.3821 20.3332C31.4287 20.4248 31.4997 20.5016 31.5873 20.5553C31.6748 20.609 31.7756 20.6374 31.8783 20.6375H34.1382C34.2859 20.6375 34.4274 20.5788 34.5318 20.4744C34.6362 20.37 34.6949 20.2284 34.6949 20.0808C34.6949 19.9332 34.6362 19.7916 34.5318 19.6872C34.4274 19.5828 34.2859 19.5242 34.1382 19.5242H32.2196L30.6079 16.3563C30.5613 16.2647 30.4903 16.1878 30.4027 16.1341C30.3152 16.0804 30.2144 16.052 30.1117 16.052ZM20.6595 14.403H23.548C23.6957 14.403 23.8372 14.3444 23.9416 14.24C24.046 14.1356 24.1047 13.994 24.1047 13.8464V7.98649C24.1047 7.83886 24.046 7.69728 23.9416 7.59289C23.8372 7.4885 23.6957 7.42985 23.548 7.42985H20.6595C20.5119 7.42985 20.3703 7.4885 20.2659 7.59289C20.1615 7.69728 20.1029 7.83886 20.1029 7.98649V13.8464C20.1029 13.994 20.1615 14.1356 20.2659 14.24C20.3703 14.3444 20.5119 14.403 20.6595 14.403ZM21.2162 8.54314H22.9914V13.2897H21.2162V8.54314ZM28.8628 9.02222H25.9742C25.8266 9.02222 25.685 9.08086 25.5806 9.18525C25.4762 9.28964 25.4176 9.43123 25.4176 9.57886V13.8464C25.4176 13.994 25.4762 14.1356 25.5806 14.24C25.685 14.3444 25.8266 14.403 25.9742 14.403H28.8628C29.0104 14.403 29.152 14.3444 29.2564 14.24C29.3608 14.1356 29.4194 13.994 29.4194 13.8464V9.57886C29.4194 9.43123 29.3608 9.28964 29.2564 9.18525C29.152 9.08086 29.0104 9.02222 28.8628 9.02222ZM28.3061 13.2897H26.5309V10.1355H28.3061V13.2897ZM34.1382 14.403C34.2859 14.403 34.4274 14.3444 34.5318 14.24C34.6362 14.1356 34.6949 13.994 34.6949 13.8464V6.51733C34.6949 6.3697 34.6362 6.22812 34.5318 6.12373C34.4274 6.01934 34.2859 5.96069 34.1382 5.96069H31.2497C31.1021 5.96069 30.9605 6.01934 30.8561 6.12373C30.7517 6.22812 30.6931 6.3697 30.6931 6.51733V13.8464C30.6931 13.994 30.7517 14.1356 30.8561 14.24C30.9605 14.3444 31.1021 14.403 31.2497 14.403H34.1382ZM31.8064 7.07397H33.5816V13.2897H31.8064V7.07397ZM16.4688 12.2576H3.85156C3.70393 12.2576 3.56235 12.3162 3.45796 12.4206C3.35357 12.525 3.29492 12.6666 3.29492 12.8142C3.29492 12.9618 3.35357 13.1034 3.45796 13.2078C3.56235 13.3122 3.70393 13.3708 3.85156 13.3708H16.4688C16.6164 13.3708 16.758 13.3122 16.8624 13.2078C16.9667 13.1034 17.0254 12.9618 17.0254 12.8142C17.0254 12.6666 16.9667 12.525 16.8624 12.4206C16.758 12.3162 16.6164 12.2576 16.4688 12.2576ZM3.85156 16.3278H6.10945C6.25708 16.3278 6.39866 16.2691 6.50305 16.1648C6.60744 16.0604 6.66609 15.9188 6.66609 15.7712C6.66609 15.6235 6.60744 15.4819 6.50305 15.3775C6.39866 15.2732 6.25708 15.2145 6.10945 15.2145H3.85156C3.70393 15.2145 3.56235 15.2732 3.45796 15.3775C3.35357 15.4819 3.29492 15.6235 3.29492 15.7712C3.29492 15.9188 3.35357 16.0604 3.45796 16.1648C3.56235 16.2691 3.70393 16.3278 3.85156 16.3278ZM16.4688 15.2145H8.65997C8.51234 15.2145 8.37076 15.2732 8.26637 15.3775C8.16198 15.4819 8.10333 15.6235 8.10333 15.7712C8.10333 15.9188 8.16198 16.0604 8.26637 16.1648C8.37076 16.2691 8.51234 16.3278 8.65997 16.3278H16.4688C16.6164 16.3278 16.758 16.2691 16.8624 16.1648C16.9667 16.0604 17.0254 15.9188 17.0254 15.7712C17.0254 15.6235 16.9667 15.4819 16.8624 15.3775C16.758 15.2732 16.6164 15.2145 16.4688 15.2145ZM16.4688 5.96069H3.85156C3.70393 5.96069 3.56235 6.01934 3.45796 6.12373C3.35357 6.22812 3.29492 6.3697 3.29492 6.51733C3.29492 6.66496 3.35357 6.80655 3.45796 6.91094C3.56235 7.01533 3.70393 7.07397 3.85156 7.07397H16.4688C16.6164 7.07397 16.758 7.01533 16.8624 6.91094C16.9667 6.80655 17.0254 6.66496 17.0254 6.51733C17.0254 6.3697 16.9667 6.22812 16.8624 6.12373C16.758 6.01934 16.6164 5.96069 16.4688 5.96069ZM3.85156 10.031H11.6759C11.8235 10.031 11.9651 9.97235 12.0695 9.86796C12.1738 9.76357 12.2325 9.62199 12.2325 9.47436C12.2325 9.32673 12.1738 9.18514 12.0695 9.08075C11.9651 8.97636 11.8235 8.91772 11.6759 8.91772H3.85156C3.70393 8.91772 3.56235 8.97636 3.45796 9.08075C3.35357 9.18514 3.29492 9.32673 3.29492 9.47436C3.29492 9.62199 3.35357 9.76357 3.45796 9.86796C3.56235 9.97235 3.70393 10.031 3.85156 10.031ZM16.4688 8.91772H14.2264C14.0787 8.91772 13.9372 8.97636 13.8328 9.08075C13.7284 9.18514 13.6697 9.32673 13.6697 9.47436C13.6697 9.62199 13.7284 9.76357 13.8328 9.86796C13.9372 9.97235 14.0787 10.031 14.2264 10.031H16.4688C16.6164 10.031 16.758 9.97235 16.8624 9.86796C16.9667 9.76357 17.0254 9.62199 17.0254 9.47436C17.0254 9.32673 16.9667 9.18514 16.8624 9.08075C16.758 8.97636 16.6164 8.91772 16.4688 8.91772ZM17.0254 18.6923C17.0254 18.5446 16.9667 18.403 16.8624 18.2986C16.758 18.1943 16.6164 18.1356 16.4688 18.1356H3.85156C3.70393 18.1356 3.56235 18.1943 3.45796 18.2986C3.35357 18.403 3.29492 18.5446 3.29492 18.6923C3.29492 18.8399 3.35357 18.9815 3.45796 19.0859C3.56235 19.1902 3.70393 19.2489 3.85156 19.2489H16.4688C16.6164 19.2489 16.758 19.1902 16.8624 19.0859C16.9667 18.9815 17.0254 18.8399 17.0254 18.6923ZM3.85156 21.0769C3.70393 21.0769 3.56235 21.1355 3.45796 21.2399C3.35357 21.3443 3.29492 21.4859 3.29492 21.6335C3.29492 21.7812 3.35357 21.9228 3.45796 22.0271C3.56235 22.1315 3.70393 22.1902 3.85156 22.1902H9.78906C9.93669 22.1902 10.0783 22.1315 10.1827 22.0271C10.2871 21.9228 10.3457 21.7812 10.3457 21.6335C10.3457 21.4859 10.2871 21.3443 10.1827 21.2399C10.0783 21.1355 9.93669 21.0769 9.78906 21.0769H3.85156Z" fill="black"/>
</svg>
