<svg width="84" height="48" viewBox="0 0 84 48" fill="none" xmlns="http://www.w3.org/2000/svg">
<path d="M14.1649 27.8352C13.9504 28.2283 12.3417 28.7649 10.5267 29.494C8.71165 30.2231 6.5089 30.7352 5.10639 31.0794C6.83888 32.3563 8.57136 33.6332 10.1141 34.7013C15.3198 38.3314 20.9628 40.9748 26.68 41.8128C32.3973 42.6508 38.197 41.4828 42.6933 38.2519C47.1813 35.2215 50.3494 30.5294 51.7437 25.5634C53.1297 20.7979 52.5605 15.3492 49.5246 12.0094C48.0066 10.3394 46.0678 9.25501 43.8898 9.16541C41.9098 9.08396 39.8886 10.0055 38.4448 11.3526C36.9928 12.9004 36.1265 14.6732 36.044 16.6791C35.7635 18.677 36.2832 20.5068 37.199 22.3529C39.0387 25.8444 42.1159 28.1813 45.6469 29.1303C48.9716 30.2718 52.5356 30.4184 55.9264 29.9551C59.1191 29.4836 62.1304 28.6028 64.7621 27.3045C67.3939 26.0062 69.6379 24.4911 71.6922 22.7672C75.5945 19.5118 78.119 15.9988 79.637 12.8463C82.8711 6.54937 82.8299 2.7299 83.4239 2.75433C83.6219 2.76248 83.8116 2.97122 83.9684 3.98235C83.9271 4.98533 83.8528 6.79069 83.1351 9.7752C82.2193 12.7516 80.462 16.8989 76.4937 21.7591C74.4147 24.0848 71.7334 26.5866 68.0786 28.6466C64.4239 30.7065 59.9853 32.5333 54.6146 32.9151C51.2321 33.1779 47.8743 32.8388 44.5496 31.6973C41.4229 30.564 38.3291 28.6284 36.2667 25.7304C34.196 23.0331 32.9585 19.3653 33.503 15.7709C34.0476 12.1764 36.1679 8.84775 39.2121 7.16456C40.8374 6.22674 42.6441 5.69826 44.4179 5.97216C46.1999 6.04547 47.9571 6.72057 49.3184 7.37937C52.2223 9.10632 54.2848 12.0043 55.151 15.0539C56.8835 21.1533 55.4396 27.3229 52.6593 32.2319C49.879 37.1409 45.7623 40.7893 41.3155 42.8167C36.448 45.4296 31.6712 45.8359 27.3235 45.4561C23.182 44.8838 19.4612 43.7261 16.351 42.1916C13.2408 40.6571 10.7246 39.147 8.40632 37.6451C5.1311 35.3001 4.16585 34.6576 3.40686 33.8226C3.48933 36.6391 3.67078 41.8709 3.03552 42.8494C1.00606 39.1491 0.651371 33.3074 0.403909 29.6804C1.01441 29.3036 9.80893 27.656 14.1649 27.8352Z" fill="#222222"/>
</svg>
