<svg width="40" height="40" viewBox="0 0 40 40" fill="none" xmlns="http://www.w3.org/2000/svg">
<g clip-path="url(#clip0_0_3442)">
<path d="M0 20C0 8.9543 8.9543 0 20 0C31.0457 0 40 8.9543 40 20C40 31.0457 31.0457 40 20 40C8.9543 40 0 31.0457 0 20Z" fill="#1769FF"/>
<path fill-rule="evenodd" clip-rule="evenodd" d="M19.7253 16.704C19.7253 15.9331 19.5234 15.2723 19.1207 14.7192C18.4497 13.8183 17.312 13.3568 15.704 13.3333H9.33331V26.3387H15.2737C15.9436 26.3387 16.5632 26.2817 17.1364 26.1642C17.7096 26.0454 18.2051 25.8288 18.6253 25.5108C18.9991 25.2336 19.3101 24.8921 19.5585 24.4875C19.9511 23.8762 20.1468 23.1845 20.1468 22.4135C20.1468 21.6661 19.9749 21.0301 19.6337 20.5079C19.2888 19.9845 18.7821 19.6021 18.1098 19.3595C18.5525 19.1368 18.8874 18.8893 19.1157 18.6196C19.5234 18.137 19.7253 17.4972 19.7253 16.704ZM28.6146 15.5582H22.9652V13.9396H28.6146V15.5582ZM23.6237 20.5784C23.7165 19.9523 23.9436 19.4561 24.3036 19.0898C24.6636 18.7235 25.1728 18.5404 25.825 18.5404C26.4271 18.5404 26.9301 18.7124 27.339 19.0576C27.7429 19.4053 27.9712 19.9102 28.0176 20.5784H23.6237ZM28.1167 16.9169C28.7978 17.2163 29.3585 17.6915 29.8 18.3399C30.2026 18.9116 30.461 19.5749 30.5789 20.3285C30.6479 20.769 30.6755 21.4075 30.6642 22.2378H23.561C23.6037 23.2018 23.9398 23.8787 24.582 24.266C24.9709 24.5073 25.4387 24.6285 25.9881 24.6285C26.5663 24.6285 27.0392 24.4813 27.4017 24.188C27.6012 24.0284 27.7768 23.8081 27.9273 23.526H30.53C30.461 24.0952 30.1449 24.6756 29.5855 25.2646C28.7125 26.1988 27.4895 26.6666 25.9179 26.6666C24.6197 26.6666 23.4745 26.2731 22.4848 25.4836C21.4901 24.6954 20.9959 23.4109 20.9959 21.6339C20.9959 19.9671 21.4437 18.6889 22.3381 17.7991C23.2349 16.9119 24.3951 16.4652 25.8238 16.4652C26.673 16.4652 27.4368 16.6162 28.1167 16.9169ZM11.9611 24.0816V20.6131H15.2073C15.7717 20.618 16.212 20.6923 16.5256 20.8333C17.0862 21.087 17.3647 21.551 17.3647 22.2292C17.3647 23.0285 17.0762 23.5681 16.498 23.8527C16.1806 24.0049 15.7341 24.0816 15.1621 24.0816H11.9611ZM11.9611 15.5916V18.4612H15.1671C15.7378 18.4612 16.2032 18.3535 16.5619 18.1382C16.9182 17.9229 17.0975 17.5418 17.0975 16.9973C17.0975 16.3897 16.8617 15.99 16.3901 15.7945C15.9812 15.6596 15.4619 15.5916 14.831 15.5916H11.9611Z" fill="white"/>
</g>
<defs>
<clipPath id="clip0_0_3442">
<rect width="40" height="40" fill="white"/>
</clipPath>
</defs>
</svg>
