<svg width="60" height="60" viewBox="0 0 68 68" fill="none" xmlns="http://www.w3.org/2000/svg">
<g filter="url(#filter0_d_0_4028)">
<rect x="16" y="8" width="36" height="36" rx="18" fill="#053E42"/>
<rect x="16.75" y="8.75" width="34.5" height="34.5" rx="17.25" stroke="white" strokeWidth="1.5"/>
</g>
<path d="M31.0832 22.5V23.1C31.2838 23.1 31.4711 22.9997 31.5824 22.8328L31.0832 22.5ZM31.9035 21.2695L31.4043 20.9367V20.9367L31.9035 21.2695ZM36.0962 21.2695L36.5954 20.9367L36.0962 21.2695ZM36.9165 22.5L36.4173 22.8328C36.5286 22.9997 36.7159 23.1 36.9165 23.1V22.5ZM35.1498 26.875C35.1498 27.5101 34.635 28.025 33.9998 28.025V29.225C35.2977 29.225 36.3498 28.1729 36.3498 26.875H35.1498ZM33.9998 28.025C33.3647 28.025 32.8498 27.5101 32.8498 26.875H31.6498C31.6498 28.1729 32.702 29.225 33.9998 29.225V28.025ZM32.8498 26.875C32.8498 26.2399 33.3647 25.725 33.9998 25.725V24.525C32.702 24.525 31.6498 25.5771 31.6498 26.875H32.8498ZM33.9998 25.725C34.635 25.725 35.1498 26.2399 35.1498 26.875H36.3498C36.3498 25.5771 35.2977 24.525 33.9998 24.525V25.725ZM31.5824 22.8328L32.4027 21.6023L31.4043 20.9367L30.5839 22.1672L31.5824 22.8328ZM32.8742 21.35H35.1255V20.15H32.8742V21.35ZM35.597 21.6023L36.4173 22.8328L37.4157 22.1672L36.5954 20.9367L35.597 21.6023ZM35.1255 21.35C35.3149 21.35 35.4919 21.4447 35.597 21.6023L36.5954 20.9367C36.2678 20.4452 35.7161 20.15 35.1255 20.15V21.35ZM32.4027 21.6023C32.5078 21.4447 32.6848 21.35 32.8742 21.35V20.15C32.2835 20.15 31.7319 20.4452 31.4043 20.9367L32.4027 21.6023ZM39.2332 24.8333V28.9167H40.4332V24.8333H39.2332ZM37.4998 30.65H30.4998V31.85H37.4998V30.65ZM28.7665 28.9167V24.8333H27.5665V28.9167H28.7665ZM30.4998 30.65C29.5425 30.65 28.7665 29.874 28.7665 28.9167H27.5665C27.5665 30.5367 28.8798 31.85 30.4998 31.85V30.65ZM39.2332 28.9167C39.2332 29.874 38.4571 30.65 37.4998 30.65V31.85C39.1199 31.85 40.4332 30.5367 40.4332 28.9167H39.2332ZM37.4998 23.1C38.4571 23.1 39.2332 23.876 39.2332 24.8333H40.4332C40.4332 23.2133 39.1199 21.9 37.4998 21.9V23.1ZM30.4998 21.9C28.8798 21.9 27.5665 23.2133 27.5665 24.8333H28.7665C28.7665 23.876 29.5425 23.1 30.4998 23.1V21.9ZM30.4998 23.1H31.0832V21.9H30.4998V23.1ZM37.4998 21.9H36.9165V23.1H37.4998V21.9Z" fill="white"/>
<circle cx="33.9998" cy="22.4997" r="0.583333" fill="white"/>
<defs>
<filter id="filter0_d_0_4028" x="0" y="0" width="68" height="68" filterUnits="userSpaceOnUse" color-interpolation-filters="sRGB">
<feFlood flood-opacity="0" result="BackgroundImageFix"/>
<feColorMatrix in="SourceAlpha" type="matrix" values="0 0 0 0 0 0 0 0 0 0 0 0 0 0 0 0 0 0 127 0" result="hardAlpha"/>
<feOffset dy="8"/>
<feGaussianBlur stdDeviation="8"/>
<feComposite in2="hardAlpha" operator="out"/>
<feColorMatrix type="matrix" values="0 0 0 0 0.85 0 0 0 0 0.85 0 0 0 0 0.85 0 0 0 0.25 0"/>
<feBlend mode="normal" in2="BackgroundImageFix" result="effect1_dropShadow_0_4028"/>
<feBlend mode="normal" in="SourceGraphic" in2="effect1_dropShadow_0_4028" result="shape"/>
</filter>
</defs>
</svg>
