<svg width="24" height="24" viewBox="0 0 24 24" fill="none" xmlns="http://www.w3.org/2000/svg">
<path d="M22.413 3.9375H1.587C0.711937 3.9375 0 4.64944 0 5.52445V18.4755C0 19.3506 0.711937 20.0625 1.587 20.0625H22.413C23.2881 20.0625 24 19.3506 24 18.4755V5.52445C24 4.64944 23.2881 3.9375 22.413 3.9375ZM23.25 18.4755C23.25 18.937 22.8745 19.3125 22.413 19.3125H1.587C1.12547 19.3125 0.75 18.937 0.75 18.4755V5.52445C0.75 5.06297 1.12547 4.6875 1.587 4.6875H22.413C22.8745 4.6875 23.25 5.06297 23.25 5.52445V18.4755ZM10.9062 7.39453H2.44523C2.34578 7.39453 2.2504 7.43404 2.18007 7.50437C2.10974 7.57469 2.07023 7.67008 2.07023 7.76953V16.2305C2.07023 16.3299 2.10974 16.4253 2.18007 16.4956C2.2504 16.566 2.34578 16.6055 2.44523 16.6055H10.9062C11.0056 16.6055 11.101 16.566 11.1713 16.4956C11.2417 16.4253 11.2812 16.3299 11.2812 16.2305V7.76953C11.2812 7.67008 11.2417 7.57469 11.1713 7.50437C11.101 7.43404 11.0056 7.39453 10.9062 7.39453ZM8.63522 15.8555H4.71623V15.3319C4.71623 14.2515 5.59523 13.3725 6.6757 13.3725C7.75617 13.3725 8.63522 14.2515 8.63522 15.3319V15.8555ZM10.5312 15.8555H9.38522V15.3319C9.38522 13.8379 8.1697 12.6225 6.6757 12.6225C5.1817 12.6225 3.96623 13.8379 3.96623 15.3319V15.8555H2.82028V8.14453H10.5312V15.8555H10.5312ZM6.67575 12.2898C7.57894 12.2898 8.31375 11.555 8.31375 10.6518C8.31375 9.74859 7.57894 9.01383 6.67575 9.01383C5.77256 9.01383 5.03775 9.74864 5.03775 10.6518C5.03775 11.555 5.77252 12.2898 6.67575 12.2898ZM6.67575 9.76378C7.16541 9.76378 7.56375 10.1621 7.56375 10.6517C7.56375 11.1414 7.16541 11.5397 6.67575 11.5397C6.18609 11.5397 5.78775 11.1414 5.78775 10.6517C5.78775 10.1621 6.18609 9.76378 6.67575 9.76378ZM14.5176 10.6941C14.5176 10.7935 14.4781 10.8889 14.4078 10.9592C14.3374 11.0296 14.2421 11.0691 14.1426 11.0691H12.7716C12.6722 11.0691 12.5768 11.0296 12.5064 10.9592C12.4361 10.8889 12.3966 10.7935 12.3966 10.6941C12.3966 10.5946 12.4361 10.4992 12.5064 10.4289C12.5768 10.3586 12.6722 10.3191 12.7716 10.3191H14.1426C14.2421 10.3191 14.3374 10.3586 14.4078 10.4289C14.4781 10.4992 14.5176 10.5946 14.5176 10.6941ZM21.9298 10.6941C21.9298 10.7935 21.8903 10.8889 21.8199 10.9592C21.7496 11.0296 21.6542 11.0691 21.5548 11.0691H15.5022C15.4028 11.0691 15.3074 11.0296 15.2371 10.9592C15.1667 10.8889 15.1272 10.7935 15.1272 10.6941C15.1272 10.5946 15.1667 10.4992 15.2371 10.4289C15.3074 10.3586 15.4028 10.3191 15.5022 10.3191H21.5548C21.6542 10.3191 21.7496 10.3586 21.8199 10.4289C21.8903 10.4992 21.9298 10.5946 21.9298 10.6941ZM14.5176 15.4255C14.5176 15.5249 14.4781 15.6203 14.4078 15.6906C14.3374 15.761 14.2421 15.8005 14.1426 15.8005H12.7716C12.6722 15.8005 12.5768 15.761 12.5064 15.6906C12.4361 15.6203 12.3966 15.5249 12.3966 15.4255C12.3966 15.326 12.4361 15.2306 12.5064 15.1603C12.5768 15.09 12.6722 15.0505 12.7716 15.0505H14.1426C14.2421 15.0505 14.3374 15.09 14.4078 15.1603C14.4781 15.2306 14.5176 15.326 14.5176 15.4255ZM21.9298 15.4255C21.9298 15.5249 21.8903 15.6203 21.8199 15.6906C21.7496 15.761 21.6542 15.8005 21.5548 15.8005H15.5022C15.4028 15.8005 15.3074 15.761 15.2371 15.6906C15.1667 15.6203 15.1272 15.5249 15.1272 15.4255C15.1272 15.326 15.1667 15.2306 15.2371 15.1603C15.3074 15.09 15.4028 15.0505 15.5022 15.0505H21.5548C21.6542 15.0505 21.7496 15.09 21.8199 15.1603C21.8903 15.2306 21.9298 15.326 21.9298 15.4255ZM21.9298 13.0597C21.9298 13.1592 21.8903 13.2546 21.8199 13.3249C21.7496 13.3952 21.6542 13.4347 21.5548 13.4347H15.5022C15.4028 13.4347 15.3074 13.3952 15.2371 13.3249C15.1667 13.2546 15.1272 13.1592 15.1272 13.0597C15.1272 12.9603 15.1667 12.8649 15.2371 12.7946C15.3074 12.7243 15.4028 12.6847 15.5022 12.6847H21.5548C21.6542 12.6847 21.7496 12.7243 21.8199 12.7946C21.8903 12.8649 21.9298 12.9603 21.9298 13.0597ZM14.5176 13.0597C14.5176 13.1592 14.4781 13.2546 14.4078 13.3249C14.3374 13.3952 14.2421 13.4347 14.1426 13.4347H12.7716C12.6722 13.4347 12.5768 13.3952 12.5064 13.3249C12.4361 13.2546 12.3966 13.1592 12.3966 13.0597C12.3966 12.9603 12.4361 12.8649 12.5064 12.7946C12.5768 12.7243 12.6722 12.6847 12.7716 12.6847H14.1426C14.2421 12.6847 14.3374 12.7243 14.4078 12.7946C14.4781 12.8649 14.5176 12.9603 14.5176 13.0597ZM21.9298 8.32828C21.9298 8.42774 21.8903 8.52312 21.8199 8.59345C21.7496 8.66377 21.6542 8.70328 21.5548 8.70328H15.5022C15.4028 8.70328 15.3074 8.66377 15.2371 8.59345C15.1667 8.52312 15.1272 8.42774 15.1272 8.32828C15.1272 8.22883 15.1667 8.13344 15.2371 8.06312C15.3074 7.99279 15.4028 7.95328 15.5022 7.95328H21.5548C21.6542 7.95328 21.7496 7.99279 21.8199 8.06312C21.8903 8.13344 21.9298 8.22883 21.9298 8.32828ZM14.5176 8.32828C14.5176 8.42774 14.4781 8.52312 14.4078 8.59345C14.3374 8.66377 14.2421 8.70328 14.1426 8.70328H12.7716C12.6722 8.70328 12.5768 8.66377 12.5064 8.59345C12.4361 8.52312 12.3966 8.42774 12.3966 8.32828C12.3966 8.22883 12.4361 8.13344 12.5064 8.06312C12.5768 7.99279 12.6722 7.95328 12.7716 7.95328H14.1426C14.2421 7.95328 14.3374 7.99279 14.4078 8.06312C14.4781 8.13344 14.5176 8.22883 14.5176 8.32828Z" fill="#3E3E3E"/>
</svg>
