<svg width="42" height="38" viewBox="0 0 42 38" fill="none" xmlns="http://www.w3.org/2000/svg">
<path d="M24.7862 10.9404C24.8104 11.0291 24.852 11.112 24.9083 11.1846C24.9647 11.2572 25.0348 11.318 25.1147 11.3634C25.1946 11.4089 25.2826 11.4381 25.3738 11.4495C25.465 11.4609 25.5576 11.4542 25.6462 11.4298L29.1176 10.4789C29.2959 10.4299 29.4474 10.3122 29.5391 10.1517C29.6309 9.99121 29.6553 9.80091 29.6071 9.62245L28.4429 5.37839C28.3939 5.20015 28.2762 5.04859 28.1157 4.95687C27.9552 4.86515 27.7649 4.84073 27.5864 4.88896L24.1219 5.83985C24.0333 5.86412 23.9503 5.90563 23.8777 5.962C23.8052 6.01838 23.7444 6.0885 23.6989 6.16838C23.6535 6.24825 23.6242 6.33631 23.6128 6.4275C23.6014 6.5187 23.6081 6.61124 23.6325 6.69985L24.7862 10.9404ZM27.2683 6.42367L28.0584 9.3148L25.9503 9.89163L25.1707 7.00399L27.2683 6.42367Z" fill="#292929"/>
<path d="M40.48 19.8166C39.8438 19.2258 38.2776 18.6105 37.4176 17.8344C37.3563 17.7804 37.2866 17.7367 37.2113 17.7051L32.8239 1.69369C32.7446 1.4022 32.6086 1.12923 32.4236 0.890394C32.2386 0.651562 32.0083 0.451568 31.7459 0.301864C31.4835 0.152159 31.1942 0.055687 30.8945 0.0179712C30.5947 -0.0197447 30.2905 0.00203696 29.9992 0.0820687L19.2038 3.03963C18.9123 3.11895 18.6393 3.255 18.4005 3.43999C18.1617 3.62497 17.9617 3.85525 17.812 4.11763C17.6623 4.38002 17.5658 4.66936 17.5281 4.96909C17.4903 5.26882 17.5121 5.57304 17.5922 5.86434L21.609 20.5193C20.0638 21.6135 19.1898 23.316 20.2631 24.8717C20.4689 25.159 20.7321 25.4004 21.036 25.581C21.3398 25.7615 21.6778 25.8771 22.0285 25.9205C22.0036 26.4416 22.1205 26.9596 22.3668 27.4195C22.613 27.8793 22.9794 28.2638 23.4269 28.532C24.2869 29.0179 25.1748 28.8815 26.0838 28.4481L25.9789 28.7137C25.1888 30.7064 26.1747 32.4334 26.6501 33.2585C26.7095 33.3633 26.783 33.4927 26.8074 33.5486C26.831 33.77 26.8074 33.9938 26.7381 34.2053C26.6688 34.4168 26.5554 34.6112 26.4054 34.7757C26.3084 34.8921 26.2519 35.0369 26.2444 35.1882C26.2368 35.3395 26.2786 35.4892 26.3635 35.6147C27.6674 37.5515 31.457 38.3136 33.5686 37.8836C37.3057 37.118 38.1972 35.2162 38.2881 34.9994C38.3467 34.8525 38.3553 34.6903 38.3125 34.538C38.3125 34.538 38.0364 33.4892 38.3125 31.6084C38.5363 30.1296 41.1827 23.6551 41.3575 22.8371C41.4541 22.3 41.4251 21.748 41.2729 21.224C41.1207 20.7 40.8493 20.2183 40.48 19.8166ZM18.9416 5.48328C18.8818 5.25384 18.9151 5.01007 19.0343 4.8051C19.1535 4.60014 19.3489 4.45059 19.5778 4.38906L30.3698 1.4315C30.5983 1.37146 30.8412 1.40383 31.046 1.52161C31.2508 1.63938 31.401 1.83308 31.464 2.06077L36.1136 19.03C36.1449 19.1439 36.1534 19.2628 36.1387 19.3799C36.124 19.4971 36.0864 19.6102 36.028 19.7128C35.9695 19.8154 35.8914 19.9055 35.7981 19.9779C35.7049 20.0503 35.5982 20.1036 35.4843 20.1347L31.8416 21.1381C31.5949 20.2193 31.2245 19.3384 30.7404 18.5196C29.5552 16.7716 27.1395 15.5446 25.6433 16.9185C24.5665 17.9078 25.0105 19.016 25.5244 20.299C25.8442 21.0649 26.1174 21.8495 26.3425 22.6483C25.7621 22.8126 24.9231 23.0433 24.5421 23.1237C24.4371 23.1445 24.3291 23.1442 24.2242 23.1228C24.1194 23.1014 24.0198 23.0594 23.9314 22.9993C23.8429 22.9391 23.7673 22.8619 23.7089 22.7723C23.6505 22.6826 23.6105 22.5822 23.5912 22.477L18.9416 5.48328ZM34.5404 23.4524C34.1091 23.8461 33.6408 24.1973 33.1421 24.5011C32.7345 23.8811 32.4343 23.1968 32.2541 22.477L33.1176 22.2393C33.5627 22.6767 34.0382 23.082 34.5404 23.4524ZM21.4097 24.0746C20.9063 23.344 21.3503 22.5714 22.011 21.9771C22.1858 22.4106 22.2138 23.6551 23.35 24.2774C22.4445 24.7598 21.7278 24.5326 21.4097 24.0746ZM26.6222 26.4659C25.1084 27.6055 24.4896 27.5146 24.1226 27.3154C23.8673 27.1534 23.6665 26.9185 23.5463 26.6412C23.426 26.3638 23.3917 26.0567 23.4478 25.7597C24.2507 25.4514 24.9694 24.9579 25.5454 24.3194C25.895 24.225 26.311 24.1131 26.6466 24.0187C26.7617 24.831 26.7535 25.656 26.6222 26.4659ZM40.0046 22.5504C39.8612 23.2216 37.2078 29.7276 36.9456 31.4091C36.762 32.47 36.749 33.5534 36.9072 34.6184C36.631 35.0099 35.7081 36.0167 33.3308 36.5132C30.0866 36.8243 28.4575 35.7476 27.8352 35.1742C28.1885 34.5856 28.313 33.8875 28.1848 33.213C28.024 32.5348 26.5802 31.0455 27.3004 29.2276C28.1357 27.2606 28.3409 25.0829 27.8877 22.9944C27.6263 21.8955 27.2756 20.8199 26.8389 19.7781C26.3075 18.4532 26.283 18.2469 26.6082 17.9463C27.3773 17.2471 28.9504 18.3483 29.6007 19.3062C30.0307 19.939 30.3663 21.0367 30.6914 22.1029C31.1074 23.4664 31.499 24.7529 32.1737 25.4835C33.628 27.0602 35.1033 27.2839 35.1662 27.2909C35.3476 27.315 35.5313 27.2669 35.6777 27.1571C35.8241 27.0473 35.9216 26.8845 35.9493 26.7036C35.9774 26.5205 35.9317 26.3337 35.8223 26.1843C35.7128 26.0348 35.5485 25.9349 35.3655 25.9065C34.9713 25.8203 34.5967 25.6615 34.2608 25.4381C35.1093 24.891 35.8548 24.1987 36.4632 23.3929C36.5553 23.2583 36.5974 23.0958 36.5824 22.9334C36.5673 22.771 36.4959 22.619 36.3806 22.5037C36.2652 22.3884 36.1132 22.317 35.9509 22.3019C35.7885 22.2868 35.6259 22.329 35.4913 22.4211C35.2571 22.2428 34.9739 22.0155 34.7117 21.7988L35.8619 21.4842C36.2876 21.3678 36.6707 21.1312 36.9653 20.8025C37.2598 20.4739 37.4533 20.0672 37.5225 19.6313C38.337 20.1347 39.239 20.5717 39.5291 20.8409C39.7226 21.0773 39.8648 21.3514 39.9466 21.6457C40.0285 21.94 40.0482 22.2481 40.0046 22.5504ZM7.91193 22.1624C7.99226 22.2069 8.08059 22.2352 8.17187 22.2457C8.26314 22.2561 8.35557 22.2484 8.44388 22.2231C8.53219 22.1978 8.61465 22.1553 8.68653 22.0981C8.75841 22.0409 8.81832 21.9701 8.86282 21.8897C10.6492 18.6699 10.6492 15.7963 8.86282 12.5765C8.77289 12.4143 8.62218 12.2944 8.44385 12.2432C8.26552 12.1921 8.07419 12.2139 7.91193 12.3038C7.74967 12.3938 7.62979 12.5445 7.57865 12.7228C7.52751 12.9011 7.54931 13.0925 7.63925 13.2547C9.18794 16.0515 9.18794 18.4217 7.63925 21.2115C7.59468 21.2918 7.56637 21.3801 7.55595 21.4714C7.54554 21.5627 7.55321 21.6551 7.57853 21.7434C7.60386 21.8317 7.64634 21.9142 7.70354 21.9861C7.76075 22.058 7.83156 22.1179 7.91193 22.1624ZM5.24453 20.4878C5.40317 20.583 5.59305 20.6114 5.77258 20.5668C5.95212 20.5223 6.10668 20.4084 6.20242 20.2501C6.75946 19.3424 7.05431 18.2981 7.05431 17.2331C7.05431 16.1681 6.75946 15.1239 6.20242 14.2161C6.1014 14.0695 5.94827 13.967 5.77425 13.9294C5.60024 13.8919 5.41845 13.9221 5.26595 14.0139C5.11345 14.1058 5.00174 14.2524 4.95358 14.4238C4.90543 14.5951 4.92447 14.7784 5.00681 14.9363C5.42866 15.6281 5.65183 16.4228 5.65183 17.2331C5.65183 18.0434 5.42866 18.8381 5.00681 19.5299C4.91166 19.6886 4.88326 19.8784 4.92781 20.058C4.97237 20.2375 5.08626 20.3921 5.24453 20.4878Z" fill="#292929"/>
<path d="M10.9243 23.5049C11.0066 23.5463 11.0964 23.5709 11.1883 23.5775C11.2802 23.5841 11.3725 23.5724 11.4599 23.5432C11.5473 23.5139 11.6281 23.4677 11.6975 23.4071C11.767 23.3466 11.8238 23.2729 11.8647 23.1903C13.9623 19.0161 13.9623 15.4503 11.8647 11.2762C11.8236 11.194 11.7667 11.1207 11.6973 11.0605C11.6279 11.0003 11.5473 10.9544 11.4602 10.9253C11.373 10.8963 11.281 10.8847 11.1893 10.8912C11.0977 10.8977 11.0082 10.9222 10.926 10.9633C10.8439 11.0044 10.7706 11.0612 10.7104 11.1306C10.6502 11.2 10.6043 11.2806 10.5752 11.3678C10.5461 11.455 10.5345 11.547 10.5411 11.6386C10.5476 11.7303 10.5721 11.8197 10.6132 11.9019C12.5045 15.688 12.5045 18.7784 10.6132 22.5645C10.5717 22.6467 10.5468 22.7362 10.54 22.828C10.5332 22.9197 10.5446 23.0119 10.5735 23.0993C10.6024 23.1867 10.6482 23.2675 10.7085 23.3371C10.7687 23.4067 10.842 23.4637 10.9243 23.5049Z" fill="#292929"/>
<path d="M13.9136 24.83C14.0791 24.9126 14.2707 24.9263 14.4463 24.868C14.6219 24.8097 14.7673 24.6841 14.8505 24.5188C17.2697 19.6805 17.2697 14.7862 14.8505 9.94779C14.8082 9.86584 14.7503 9.79301 14.6799 9.73347C14.6095 9.67392 14.5281 9.62882 14.4403 9.60074C14.3525 9.57266 14.26 9.56215 14.1681 9.56981C14.0762 9.57747 13.9868 9.60315 13.9048 9.64539C13.8229 9.68763 13.75 9.74559 13.6905 9.81597C13.631 9.88635 13.5859 9.96778 13.5578 10.0556C13.5297 10.1434 13.5192 10.2359 13.5268 10.3278C13.5345 10.4196 13.5602 10.5091 13.6024 10.591C15.8398 15.0728 15.8398 19.4288 13.6024 23.9105C13.5252 24.0743 13.5144 24.2616 13.5725 24.433C13.6305 24.6045 13.7528 24.7468 13.9136 24.83Z" fill="#292929"/>
<path d="M18.878 31.2168C20.1866 31.22 21.4941 31.1441 22.7935 30.9895C22.8853 30.9781 22.9739 30.9486 23.0544 30.9029C23.1348 30.8571 23.2055 30.796 23.2623 30.7229C23.3191 30.6499 23.3609 30.5664 23.3855 30.4772C23.41 30.3879 23.4167 30.2948 23.4053 30.2029C23.3938 30.1111 23.3643 30.0225 23.3186 29.942C23.2728 29.8616 23.2117 29.791 23.1387 29.7341C23.0656 29.6773 22.9821 29.6355 22.8929 29.6109C22.8037 29.5864 22.7105 29.5797 22.6187 29.5912C21.3775 29.7423 20.1283 29.8182 18.878 29.8184C9.23625 29.8184 1.39837 24.1725 1.39837 17.233C1.39837 11.5976 6.66674 6.60891 14.2075 5.10217C14.5571 5.02875 15.3611 4.84696 15.7177 4.79802C15.9031 4.77252 16.0709 4.67441 16.1839 4.52525C16.297 4.3761 16.3463 4.18813 16.3208 4.0027C16.2953 3.81726 16.1971 3.64955 16.048 3.53645C15.8988 3.42336 15.7109 3.37415 15.5254 3.39965C15.0989 3.45908 14.3333 3.63737 13.9348 3.71778C5.72983 5.36786 0 10.9404 0 17.233C0 24.9451 8.46365 31.2168 18.878 31.2168Z" fill="#292929"/>
</svg>
