<svg width="170" height="145" viewBox="0 0 170 145" fill="none" xmlns="http://www.w3.org/2000/svg">
<g clip-path="url(#clip0_0_2522)">
<path d="M123.678 105.497C123.625 106.31 125.577 108.704 127.658 111.594C129.74 114.485 132.63 117.42 134.452 119.316C130.542 119.592 126.632 119.868 123.218 120.007C111.671 120.518 100.414 119.085 90.8019 114.802C81.1898 110.519 73.4058 103.07 69.6377 93.717C65.6868 84.681 65.3862 74.375 68.0812 65.3763C70.5934 56.6943 76.7795 48.8669 84.7052 46.6878C88.668 45.5982 92.7074 45.8195 96.1454 47.8044C99.2708 49.6088 101.482 52.9965 102.39 56.4761C103.116 60.2723 102.72 63.8438 100.892 67.0102C99.3767 70.357 96.7938 72.6655 93.5858 74.613C87.3526 78.1914 80.341 78.7873 73.984 76.8058C67.7568 75.3215 62.131 72.0734 57.3663 68.056C52.9141 64.2189 49.14 59.929 46.3567 55.3668C43.5733 50.8045 41.5979 46.2865 40.1178 41.6323C37.2873 32.821 36.8274 24.9561 37.5646 18.6268C38.7265 5.78765 42.5124 -0.048047 41.5748 -0.589383C41.2623 -0.769829 40.7669 -0.633635 39.5403 0.769116C38.6263 2.35231 36.981 5.20206 35.1764 10.493C33.6844 15.9643 32.3457 24.0573 33.7137 35.4018C34.6453 41.0059 36.3318 47.468 39.9466 54.199C43.5614 60.9301 48.6092 68.0663 56.4993 73.8882C61.4469 77.5891 66.9429 80.34 73.1702 81.8244C79.0849 83.1283 85.7308 83.1657 91.7281 80.7176C97.5426 78.5862 103.021 74.1498 105.687 68.0894C108.352 62.0291 108.334 54.8417 105.292 49.2853C103.705 46.2585 101.441 43.6846 98.4453 42.3772C95.6324 40.7532 92.2711 40.0791 89.5349 39.7659C83.3843 39.5924 77.387 42.0404 73.0821 45.8878C64.4724 53.5825 60.6804 64.481 60.1732 74.7428C59.6659 85.0045 62.4433 94.6296 67.3083 102.082C72.2499 110.846 79.2024 116.127 86.2611 119.78C93.1901 122.936 100.042 124.781 106.323 125.452C112.603 126.122 117.946 126.252 122.976 126.201C130.3 125.785 132.411 125.737 134.393 125.193C131.521 129.445 126.143 137.317 126.166 139.441C132.895 135.727 139.134 127.086 143.05 121.747C142.478 120.572 130.554 109.466 123.678 105.497Z" fill="#1DD588"/>
</g>
<defs>
<clipPath id="clip0_0_2522">
<rect width="80.8027" height="149.409" fill="white" transform="translate(0 69.9771) rotate(-60)"/>
</clipPath>
</defs>
</svg>
