<svg width="24" height="24" viewBox="0 0 24 24" fill="none" xmlns="http://www.w3.org/2000/svg">
<path d="M17.8213 10.7941L17.7041 10.6769H17.5385H12C10.6517 10.6769 9.63077 9.65601 9.63077 8.30769V2.76923C9.63077 1.42091 10.6517 0.4 12 0.4H21.2308C22.5791 0.4 23.6 1.42091 23.6 2.76923V8.30769C23.6 9.65601 22.5791 10.6769 21.2308 10.6769H20.8308V11.0769V13.8035L17.8213 10.7941ZM15.8658 2.36923H15.5629L15.4808 2.6609L13.9226 8.19936L13.7796 8.70769H14.3077H15.5197H15.8322L15.9078 8.40446L16.1774 7.32308H16.9436L17.2392 8.41244L17.3193 8.70769H17.6252H19.0098H19.5379L19.3949 8.19936L17.8367 2.6609L17.7547 2.36923H17.4517H15.8658ZM3.16923 20.3077V19.9077H2.76923C1.42091 19.9077 0.4 18.8868 0.4 17.5385V12C0.4 10.6517 1.42091 9.63077 2.76923 9.63077H8.10598C8.69092 11.2106 10.1597 12.4 12 12.4H14.3692V17.5385C14.3692 18.8868 13.3483 19.9077 12 19.9077H6.46154H6.29585L6.1787 20.0248L3.16923 23.0343V20.3077ZM8.96477 17.0327C9.46184 16.4925 9.71754 15.689 9.71754 14.6825C9.71754 13.8838 9.51872 13.0994 9.07215 12.504C8.61513 11.8946 7.91917 11.5132 7.00985 11.5132C6.1435 11.5132 5.43221 11.8953 4.94634 12.503C4.46622 13.1035 4.21538 13.9102 4.21538 14.7692C4.21538 15.767 4.49375 16.5546 4.96043 17.1118C5.42732 17.6692 6.06122 17.9693 6.71632 18.0238L6.7329 18.0252H6.74954L6.7692 18.0252L6.78702 18.0251C6.7985 18.0251 6.80866 18.0252 6.81827 18.0255C6.82931 18.0258 6.83842 18.0263 6.84592 18.027L6.86714 18.0482L6.93768 18.0785L6.94704 18.0826C7.58548 18.3571 8.27629 18.6542 8.94827 18.8461L9.30342 18.9476L9.43281 18.6017L9.77804 17.6786L9.94267 17.2384L9.48183 17.1462C9.2973 17.1093 9.12507 17.073 8.96477 17.0327ZM16.5624 5.6L16.6153 5.35177L16.6687 5.6H16.5624ZM6.31323 14.7692C6.31323 14.2999 6.39733 13.9117 6.53607 13.6564C6.66729 13.4149 6.82376 13.3231 7.00985 13.3231C7.19883 13.3231 7.36308 13.4183 7.50054 13.6619C7.64458 13.9173 7.73415 14.3042 7.73415 14.7692C7.73415 15.2343 7.64458 15.6212 7.50054 15.8765C7.36308 16.1202 7.19883 16.2154 7.00985 16.2154C6.80485 16.2154 6.65443 16.1269 6.53319 15.9115C6.39909 15.6732 6.31323 15.2901 6.31323 14.7692Z" stroke="#1B1E28" strokeWidth="0.8"/>
</svg>
