<svg width="40" height="40" viewBox="0 0 40 40" fill="none" xmlns="http://www.w3.org/2000/svg">
<g clip-path="url(#clip0_0_3440)">
<circle cx="20" cy="20" r="20" fill="url(#paint0_linear_0_3440)"/>
<path fill-rule="evenodd" clip-rule="evenodd" d="M25.3892 6.66675H14.6108C10.2304 6.66675 6.66669 10.2305 6.66669 14.6109V25.3893C6.66669 29.7697 10.2304 33.3334 14.6108 33.3334H25.3892C29.7696 33.3334 33.3334 29.7697 33.3334 25.3893V14.6109C33.3333 10.2305 29.7696 6.66675 25.3892 6.66675ZM30.6507 25.3893C30.6507 28.2951 28.295 30.6507 25.3892 30.6507H14.6108C11.705 30.6507 9.34935 28.2951 9.34935 25.3893V14.6109C9.34935 11.705 11.705 9.34941 14.6108 9.34941H25.3892C28.295 9.34941 30.6507 11.705 30.6507 14.6109V25.3893ZM20 13.1031C16.197 13.1031 13.103 16.1971 13.103 20C13.103 23.8029 16.197 26.897 20 26.897C23.803 26.897 26.8969 23.803 26.8969 20C26.8969 16.197 23.803 13.1031 20 13.1031ZM20 24.2143C17.6725 24.2143 15.7857 22.3276 15.7857 20.0001C15.7857 17.6726 17.6725 15.7858 20 15.7858C22.3275 15.7858 24.2143 17.6726 24.2143 20.0001C24.2143 22.3275 22.3275 24.2143 20 24.2143ZM28.563 13.1549C28.563 14.0677 27.8231 14.8076 26.9103 14.8076C25.9976 14.8076 25.2577 14.0677 25.2577 13.1549C25.2577 12.2422 25.9976 11.5023 26.9103 11.5023C27.8231 11.5023 28.563 12.2422 28.563 13.1549Z" fill="white"/>
</g>
<defs>
<linearGradient id="paint0_linear_0_3440" x1="8.125" y1="40" x2="26.25" y2="5.18631e-07" gradientUnits="userSpaceOnUse">
<stop stop-color="#FBD06F"/>
<stop offset="0.3" stop-color="#F16C2E"/>
<stop offset="0.6" stop-color="#C82E96"/>
<stop offset="1" stop-color="#4E6AD6"/>
</linearGradient>
<clipPath id="clip0_0_3440">
<rect width="40" height="40" fill="white"/>
</clipPath>
</defs>
</svg>
