<svg width="20" height="20" viewBox="0 0 20 20" fill="none" xmlns="http://www.w3.org/2000/svg">
<path d="M10.0536 7.28103C8.70297 7.28103 7.60078 8.37601 7.60078 9.71778C7.60078 11.0595 8.70297 12.1545 10.0536 12.1545C11.4042 12.1545 12.5063 11.0595 12.5063 9.71778C12.5063 8.37601 11.4042 7.28103 10.0536 7.28103ZM17.4101 9.71778C17.4101 8.70871 17.4193 7.70879 17.3622 6.70155C17.3052 5.53162 17.0365 4.4933 16.1754 3.63779C15.3124 2.78045 14.2691 2.51539 13.0915 2.45872C12.0758 2.40205 11.0693 2.41119 10.0554 2.41119C9.0397 2.41119 8.03319 2.40205 7.01933 2.45872C5.8417 2.51539 4.79655 2.78228 3.93541 3.63779C3.07243 4.49513 2.80563 5.53162 2.74858 6.70155C2.69154 7.71062 2.70074 8.71054 2.70074 9.71778C2.70074 10.725 2.69154 11.7268 2.74858 12.734C2.80563 13.9039 3.07427 14.9423 3.93541 15.7978C4.79839 16.6551 5.8417 16.9202 7.01933 16.9768C8.03503 17.0335 9.04154 17.0244 10.0554 17.0244C11.0711 17.0244 12.0776 17.0335 13.0915 16.9768C14.2691 16.9202 15.3142 16.6533 16.1754 15.7978C17.0384 14.9404 17.3052 13.9039 17.3622 12.734C17.4211 11.7268 17.4101 10.7268 17.4101 9.71778ZM10.0536 13.467C7.96511 13.467 6.27963 11.7926 6.27963 9.71778C6.27963 7.64298 7.96511 5.96851 10.0536 5.96851C12.142 5.96851 13.8275 7.64298 13.8275 9.71778C13.8275 11.7926 12.142 13.467 10.0536 13.467ZM13.9821 6.69058C13.4944 6.69058 13.1007 6.29938 13.1007 5.81496C13.1007 5.33053 13.4944 4.93934 13.9821 4.93934C14.4697 4.93934 14.8634 5.33053 14.8634 5.81496C14.8636 5.92999 14.8409 6.04392 14.7966 6.15022C14.7524 6.25652 14.6875 6.3531 14.6056 6.43444C14.5237 6.51578 14.4265 6.58027 14.3195 6.62422C14.2125 6.66818 14.0978 6.69072 13.9821 6.69058Z" fill="#EDEDED"/>
</svg>
