<svg width="12" height="13" viewBox="0 0 12 13" fill="none" xmlns="http://www.w3.org/2000/svg">
<g clip-path="url(#clip0_0_3301)">
<path d="M6 0.5C4.80701 0.501587 3.66334 0.976203 2.81977 1.81977C1.9762 2.66334 1.50159 3.80701 1.5 5C1.5 8.23063 5.6925 12.2769 5.87063 12.4475C5.90527 12.4812 5.95168 12.5 6 12.5C6.04832 12.5 6.09473 12.4812 6.12937 12.4475C6.3075 12.2769 10.5 8.23063 10.5 5C10.4984 3.80701 10.0238 2.66334 9.18023 1.81977C8.33666 0.976203 7.19299 0.501587 6 0.5ZM6 7.0625C5.59208 7.0625 5.19331 6.94154 4.85414 6.71491C4.51496 6.48828 4.2506 6.16616 4.0945 5.78928C3.93839 5.41241 3.89755 4.99771 3.97713 4.59763C4.05671 4.19754 4.25315 3.83004 4.54159 3.54159C4.83004 3.25315 5.19754 3.05671 5.59763 2.97713C5.99771 2.89755 6.41241 2.93839 6.78928 3.0945C7.16616 3.2506 7.48828 3.51496 7.71491 3.85414C7.94154 4.19331 8.0625 4.59208 8.0625 5C8.06215 5.5469 7.84474 6.07131 7.45802 6.45802C7.07131 6.84474 6.5469 7.06215 6 7.0625Z" fill="#1A1A1A"/>
</g>
<defs>
<clipPath id="clip0_0_3301">
<rect width="12" height="12" fill="white" transform="translate(0 0.5)"/>
</clipPath>
</defs>
</svg>
