<svg width="14" height="14" viewBox="0 0 14 14" fill="none" xmlns="http://www.w3.org/2000/svg">
<path d="M11.618 0.527299C10.9123 -0.177068 9.76966 -0.177068 9.06402 0.527299L8.42474 1.17011L1.61941 7.97183L1.60494 7.98638C1.60147 7.9899 1.60147 7.99361 1.59771 7.99361C1.59048 8.00445 1.57963 8.01521 1.57255 8.02606C1.57255 8.02968 1.56879 8.02968 1.56879 8.03329C1.56156 8.04414 1.55809 8.05137 1.55071 8.06222C1.54724 8.06583 1.54724 8.06933 1.54359 8.07306C1.53998 8.08391 1.53636 8.09114 1.53263 8.10199C1.53263 8.10546 1.52916 8.10546 1.52916 8.10922L0.0192133 12.6496C-0.00250018 12.7129 -0.005886 12.7811 0.00944574 12.8463C0.0247775 12.9115 0.0582033 12.971 0.105874 13.018C0.174167 13.0854 0.266371 13.1231 0.362358 13.1228C0.401581 13.1221 0.440457 13.116 0.477945 13.1048L5.01487 11.5912C5.01837 11.5912 5.01837 11.5912 5.0221 11.5878C5.03352 11.5844 5.04443 11.5795 5.05453 11.5732C5.05729 11.5728 5.05987 11.5716 5.06187 11.5697C5.07261 11.5624 5.08707 11.5551 5.09792 11.5478C5.10865 11.5407 5.11961 11.5299 5.13046 11.5227C5.13407 11.5189 5.13757 11.5189 5.13757 11.5154C5.14133 11.5118 5.14856 11.5083 5.15215 11.501L12.5968 4.05634C13.3012 3.35073 13.3012 2.20805 12.5968 1.50253L11.618 0.527299ZM4.89931 10.7423L2.38527 8.22843L8.67761 1.93609L11.1916 4.45002L4.89931 10.7423ZM2.03116 8.89664L4.22749 11.0928L0.929503 12.1909L2.03116 8.89664ZM12.0876 3.5506L11.7046 3.93714L9.19049 1.42301L9.57713 1.03656C10 0.613989 10.6856 0.613989 11.1086 1.03656L12.0911 2.01905C12.5108 2.44388 12.5092 3.1278 12.0876 3.5506Z" fill="black"/>
</svg>
