<svg width="40" height="40" viewBox="0 0 40 40" fill="none" xmlns="http://www.w3.org/2000/svg">
<g clip-path="url(#clip0_0_3441)">
<path d="M20 39.8361C31.0457 39.8361 40 30.9185 40 19.918C40 8.91761 31.0457 0 20 0C8.9543 0 0 8.91761 0 19.918C0 30.9185 8.9543 39.8361 20 39.8361Z" fill="white"/>
<path d="M20 0C8.95473 0 0 8.91803 0 19.918C0 28.3607 5.26749 35.5738 12.7078 38.4754C12.5267 36.9016 12.3786 34.4754 12.7737 32.7541C13.1358 31.1967 15.1111 22.8525 15.1111 22.8525C15.1111 22.8525 14.5185 21.6557 14.5185 19.9016C14.5185 17.1311 16.1317 15.0656 18.1399 15.0656C19.8519 15.0656 20.6749 16.3443 20.6749 17.8689C20.6749 19.5738 19.5885 22.1311 19.0123 24.5082C18.535 26.4918 20.0165 28.1148 21.9753 28.1148C25.5309 28.1148 28.2634 24.3771 28.2634 19C28.2634 14.2295 24.823 10.9016 19.9012 10.9016C14.2058 10.9016 10.8642 15.1475 10.8642 19.541C10.8642 21.2459 11.5226 23.082 12.3457 24.082C12.5103 24.2787 12.5267 24.459 12.4774 24.6557C12.3292 25.2787 11.9835 26.6393 11.9177 26.918C11.8354 27.2787 11.6214 27.3607 11.2428 27.1803C8.74074 26.0164 7.17695 22.3934 7.17695 19.459C7.17695 13.1803 11.7531 7.40984 20.3951 7.40984C27.3251 7.40984 32.7243 12.3279 32.7243 18.918C32.7243 25.7869 28.3786 31.3115 22.3539 31.3115C20.3292 31.3115 18.4198 30.2623 17.7778 29.0164C17.7778 29.0164 16.7737 32.8197 16.5267 33.7541C16.0823 35.4918 14.8642 37.6557 14.0412 38.9836C15.9177 39.5574 17.893 39.8689 19.9671 39.8689C31.0123 39.8689 39.9671 30.9508 39.9671 19.9508C40 8.91803 31.0453 0 20 0Z" fill="#E60019"/>
</g>
<defs>
<clipPath id="clip0_0_3441">
<rect width="40" height="40" fill="white"/>
</clipPath>
</defs>
</svg>
