<svg width="24" height="24" viewBox="0 0 24 24" fill="none" xmlns="http://www.w3.org/2000/svg">
<g clip-path="url(#clip0_0_2330)">
<path d="M9.5 15H3.5C3.36739 15 3.24021 14.9473 3.14645 14.8536C3.05268 14.7598 3 14.6326 3 14.5C3 14.3674 3.05268 14.2402 3.14645 14.1464C3.24021 14.0527 3.36739 14 3.5 14H9.5C9.63261 14 9.75979 14.0527 9.85355 14.1464C9.94732 14.2402 10 14.3674 10 14.5C10 14.6326 9.94732 14.7598 9.85355 14.8536C9.75979 14.9473 9.63261 15 9.5 15ZM8.5 18H3.5C3.36739 18 3.24021 17.9473 3.14645 17.8536C3.05268 17.7598 3 17.6326 3 17.5C3 17.3674 3.05268 17.2402 3.14645 17.1464C3.24021 17.0527 3.36739 17 3.5 17H8.5C8.63261 17 8.75979 17.0527 8.85355 17.1464C8.94732 17.2402 9 17.3674 9 17.5C9 17.6326 8.94732 17.7598 8.85355 17.8536C8.75979 17.9473 8.63261 18 8.5 18ZM8.5 7C7.397 7 6.5 6.103 6.5 5C6.5 3.897 7.397 3 8.5 3C9.603 3 10.5 3.897 10.5 5C10.5 6.103 9.603 7 8.5 7ZM8.5 4C7.949 4 7.5 4.449 7.5 5C7.5 5.551 7.949 6 8.5 6C9.051 6 9.5 5.551 9.5 5C9.5 4.449 9.051 4 8.5 4ZM12 12C11.8674 12 11.7402 11.9473 11.6464 11.8536C11.5527 11.7598 11.5 11.6326 11.5 11.5V10.5C11.5 9.673 10.827 9 10 9H7C6.173 9 5.5 9.673 5.5 10.5V11.5C5.5 11.6326 5.44732 11.7598 5.35355 11.8536C5.25979 11.9473 5.13261 12 5 12C4.86739 12 4.74021 11.9473 4.64645 11.8536C4.55268 11.7598 4.5 11.6326 4.5 11.5V10.5C4.5 9.122 5.622 8 7 8H10C11.378 8 12.5 9.122 12.5 10.5V11.5C12.5 11.6326 12.4473 11.7598 12.3536 11.8536C12.2598 11.9473 12.1326 12 12 12Z" fill="#3E3E3E"/>
<path d="M9.5 21H2.5C1.8372 20.9992 1.20178 20.7356 0.73311 20.2669C0.264441 19.7982 0.000793929 19.1628 0 18.5L0 2.5C0 1.122 1.122 0 2.5 0H14.5C15.878 0 17 1.122 17 2.5V8.56C17 8.69261 16.9473 8.81979 16.8536 8.91355C16.7598 9.00732 16.6326 9.06 16.5 9.06C16.3674 9.06 16.2402 9.00732 16.1464 8.91355C16.0527 8.81979 16 8.69261 16 8.56V2.5C16 1.673 15.327 1 14.5 1H2.5C1.673 1 1 1.673 1 2.5V18.5C1 19.327 1.673 20 2.5 20H9.5C9.63261 20 9.75979 20.0527 9.85355 20.1464C9.94732 20.2402 10 20.3674 10 20.5C10 20.6326 9.94732 20.7598 9.85355 20.8536C9.75979 20.9473 9.63261 21 9.5 21Z" fill="#3E3E3E"/>
<path d="M17.5 24C13.916 24 11 21.084 11 17.5C11 13.916 13.916 11 17.5 11C21.084 11 24 13.916 24 17.5C24 21.084 21.084 24 17.5 24ZM17.5 12C14.467 12 12 14.467 12 17.5C12 20.533 14.467 23 17.5 23C20.533 23 23 20.533 23 17.5C23 14.467 20.533 12 17.5 12Z" fill="#3E3E3E"/>
<path d="M16.5002 20.0001C16.3676 19.9998 16.2405 19.9473 16.1462 19.8541L14.1462 17.8541C14.0551 17.7598 14.0047 17.6335 14.0059 17.5024C14.007 17.3713 14.0596 17.2459 14.1523 17.1532C14.245 17.0605 14.3704 17.0079 14.5015 17.0067C14.6326 17.0056 14.7589 17.056 14.8532 17.1471L16.4752 18.7691L19.6232 15.1711C19.7106 15.0712 19.8341 15.0102 19.9665 15.0014C20.0989 14.9925 20.2294 15.0367 20.3292 15.1241C20.4291 15.2115 20.4901 15.3349 20.4989 15.4673C20.5077 15.5997 20.4636 15.7302 20.3762 15.8301L16.8762 19.8301C16.8311 19.8816 16.7758 19.9233 16.7139 19.9525C16.652 19.9818 16.5847 19.998 16.5162 20.0001H16.5002Z" fill="#3E3E3E"/>
</g>
<defs>
<clipPath id="clip0_0_2330">
<rect width="24" height="24" fill="white"/>
</clipPath>
</defs>
</svg>
