<svg width="94" height="94" viewBox="0 0 94 94" fill="none" xmlns="http://www.w3.org/2000/svg">
<path d="M35.25 0H0V35.25H35.25V0ZM29.375 29.375H5.875V5.875H29.375V29.375Z" fill="black"/>
<path d="M11.75 11.75H23.5V23.5H11.75V11.75ZM0 94H35.25V58.75H0V94ZM5.875 64.625H29.375V88.125H5.875V64.625Z" fill="black"/>
<path d="M11.75 70.5H23.5V82.25H11.75V70.5ZM58.75 0V35.25H94V0H58.75ZM88.125 29.375H64.625V5.875H88.125V29.375Z" fill="black"/>
<path d="M70.5 11.75H82.25V23.5H70.5V11.75ZM11.75 41.125H0V52.875H17.625V47H11.75V41.125ZM41.125 52.875H52.875V64.625H41.125V52.875ZM17.625 41.125H29.375V47H17.625V41.125ZM52.875 70.5H41.125V76.375H47V82.25H52.875V76.375V70.5ZM35.25 41.125V47H29.375V52.875H41.125V41.125H35.25ZM47 23.5H52.875V35.25H47V23.5ZM52.875 47V52.875H64.625V41.125H47V47H52.875ZM41.125 35.25H47V41.125H41.125V35.25ZM52.875 82.25H64.625V94H52.875V82.25ZM41.125 82.25H47V94H41.125V82.25ZM52.875 64.625H58.75V70.5H52.875V64.625ZM52.875 17.625V5.875H47V0H41.125V23.5H47V17.625H52.875ZM70.5 82.25H76.375V94H70.5V82.25ZM70.5 70.5H82.25V76.375H70.5V70.5ZM64.625 76.375H70.5V82.25H64.625V76.375ZM58.75 70.5H64.625V76.375H58.75V70.5ZM82.25 58.75V64.625H88.125V70.5H94V58.75H88.125H82.25ZM88.125 76.375H82.25V94H94V82.25H88.125V76.375ZM58.75 58.75V64.625H76.375V52.875H64.625V58.75H58.75ZM70.5 41.125V47H82.25V52.875H94V41.125H82.25H70.5Z" fill="black"/>
</svg>
