<svg width="22" height="22" viewBox="0 0 22 22" fill="none" xmlns="http://www.w3.org/2000/svg">
<path d="M11 14.4375C9.1025 14.4375 7.5625 12.8975 7.5625 11C7.5625 9.1025 9.1025 7.5625 11 7.5625C12.8975 7.5625 14.4375 9.1025 14.4375 11C14.4375 12.8975 12.8975 14.4375 11 14.4375ZM11 8.9375C9.86333 8.9375 8.9375 9.86333 8.9375 11C8.9375 12.1367 9.86333 13.0625 11 13.0625C12.1367 13.0625 13.0625 12.1367 13.0625 11C13.0625 9.86333 12.1367 8.9375 11 8.9375Z" fill="#292D32"/>
<path d="M13.9412 20.3408C13.7487 20.3408 13.5562 20.3133 13.3637 20.2674C12.7954 20.1116 12.3187 19.7541 12.0162 19.2499L11.9062 19.0666C11.3654 18.1316 10.6229 18.1316 10.082 19.0666L9.9812 19.2408C9.6787 19.7541 9.20203 20.1208 8.6337 20.2674C8.0562 20.4233 7.46036 20.3408 6.9562 20.0383L5.37953 19.1308C4.82036 18.8099 4.41703 18.2874 4.24286 17.6549C4.07786 17.0224 4.16036 16.3716 4.4812 15.8124C4.74703 15.3449 4.82036 14.9233 4.66453 14.6574C4.5087 14.3916 4.11453 14.2358 3.5737 14.2358C2.23536 14.2358 1.14453 13.1449 1.14453 11.8066V10.1933C1.14453 8.85494 2.23536 7.7641 3.5737 7.7641C4.11453 7.7641 4.5087 7.60827 4.66453 7.34244C4.82036 7.0766 4.7562 6.65494 4.4812 6.18744C4.16036 5.62827 4.07786 4.96827 4.24286 4.34494C4.40786 3.71244 4.8112 3.18994 5.37953 2.8691L6.96536 1.9616C8.0012 1.34744 9.36703 1.70494 9.99036 2.7591L10.1004 2.94244C10.6412 3.87744 11.3837 3.87744 11.9245 2.94244L12.0254 2.76827C12.6487 1.70494 14.0145 1.34744 15.0595 1.97077L16.6362 2.87827C17.1954 3.1991 17.5987 3.7216 17.7729 4.3541C17.9379 4.9866 17.8554 5.63744 17.5345 6.1966C17.2687 6.6641 17.1954 7.08577 17.3512 7.3516C17.507 7.61744 17.9012 7.77327 18.442 7.77327C19.7804 7.77327 20.8712 8.8641 20.8712 10.2024V11.8158C20.8712 13.1541 19.7804 14.2449 18.442 14.2449C17.9012 14.2449 17.507 14.4008 17.3512 14.6666C17.1954 14.9324 17.2595 15.3541 17.5345 15.8216C17.8554 16.3808 17.947 17.0408 17.7729 17.6641C17.6079 18.2966 17.2045 18.8191 16.6362 19.1399L15.0504 20.0474C14.702 20.2399 14.3262 20.3408 13.9412 20.3408ZM10.9987 16.9491C11.8145 16.9491 12.5754 17.4624 13.0979 18.3699L13.1987 18.5441C13.3087 18.7366 13.492 18.8741 13.712 18.9291C13.932 18.9841 14.152 18.9566 14.3354 18.8466L15.9212 17.9299C16.1595 17.7924 16.3429 17.5633 16.4162 17.2883C16.4895 17.0133 16.4529 16.7291 16.3154 16.4908C15.7929 15.5924 15.7287 14.6666 16.132 13.9608C16.5354 13.2549 17.3695 12.8516 18.4145 12.8516C19.0012 12.8516 19.4687 12.3841 19.4687 11.7974V10.1841C19.4687 9.6066 19.0012 9.12994 18.4145 9.12994C17.3695 9.12994 16.5354 8.7266 16.132 8.02077C15.7287 7.31494 15.7929 6.3891 16.3154 5.49077C16.4529 5.25244 16.4895 4.96827 16.4162 4.69327C16.3429 4.41827 16.1687 4.19827 15.9304 4.0516L14.3445 3.1441C13.9504 2.90577 13.4279 3.04327 13.1895 3.4466L13.0887 3.62077C12.5662 4.52827 11.8054 5.0416 10.9895 5.0416C10.1737 5.0416 9.41286 4.52827 8.89036 3.62077L8.78953 3.43744C8.56036 3.05244 8.04703 2.91494 7.65286 3.1441L6.06703 4.06077C5.8287 4.19827 5.64536 4.42744 5.57203 4.70244C5.4987 4.97744 5.53536 5.2616 5.67286 5.49994C6.19536 6.39827 6.25953 7.3241 5.8562 8.02994C5.45286 8.73577 4.6187 9.1391 3.5737 9.1391C2.98703 9.1391 2.51953 9.6066 2.51953 10.1933V11.8066C2.51953 12.3841 2.98703 12.8608 3.5737 12.8608C4.6187 12.8608 5.45286 13.2641 5.8562 13.9699C6.25953 14.6758 6.19536 15.6016 5.67286 16.4999C5.53536 16.7383 5.4987 17.0224 5.57203 17.2974C5.64536 17.5724 5.81953 17.7924 6.05786 17.9391L7.6437 18.8466C7.8362 18.9658 8.06536 18.9933 8.2762 18.9383C8.4962 18.8833 8.67953 18.7366 8.7987 18.5441L8.89953 18.3699C9.42203 17.4716 10.1829 16.9491 10.9987 16.9491Z" fill="#292D32"/>
</svg>
