<svg width="22" height="22" viewBox="0 0 22 22" fill="none" xmlns="http://www.w3.org/2000/svg">
<path d="M12.8334 17.4167C16.2901 17.4167 18.019 17.4167 19.0924 16.3423C20.1667 15.2689 20.1667 13.5401 20.1667 10.0833C20.1667 6.62658 20.1667 4.89775 19.0924 3.82433C18.019 2.75 16.2901 2.75 12.8334 2.75H9.16671C5.70996 2.75 3.98112 2.75 2.90771 3.82433C1.83337 4.89775 1.83337 6.62658 1.83337 10.0833C1.83337 13.5401 1.83337 15.2689 2.90771 16.3423C3.50629 16.9418 4.30837 17.2068 5.50004 17.3232" stroke="#292D32" stroke-width="2" stroke-linecap="round" stroke-linejoin="round"/>
<path d="M11.0001 10.0834V10.0925M7.33343 10.0834V10.0925M14.6668 10.0834V10.0925M12.8334 17.4167C11.7004 17.4167 10.4519 17.875 9.31252 18.4663C7.48102 19.4169 6.56527 19.8926 6.11427 19.5892C5.66327 19.2867 5.74852 18.3471 5.91993 16.4689L5.95843 16.0417" stroke="#292D32" stroke-width="2" stroke-linecap="round"/>
</svg>
