<svg width="40" height="40" viewBox="0 0 40 40" fill="none" xmlns="http://www.w3.org/2000/svg">
<g clip-path="url(#clip0_0_3439)">
<path d="M0 20C0 8.9543 8.9543 0 20 0C31.0457 0 40 8.9543 40 20C40 31.0457 31.0457 40 20 40C8.9543 40 0 31.0457 0 20Z" fill="#349DF0"/>
<path d="M20.0917 15.7102L20.1405 16.5032L19.3276 16.4061C16.3688 16.0339 13.7838 14.7716 11.5891 12.6516L10.5161 11.5997L10.2397 12.3765C9.65441 14.1081 10.0283 15.9368 11.2476 17.1667C11.8979 17.8464 11.7516 17.9435 10.6299 17.5389C10.2397 17.4094 9.89827 17.3123 9.86576 17.3609C9.75196 17.4742 10.1421 18.9468 10.451 19.5294C10.8737 20.3386 11.7354 21.1315 12.6783 21.6008L13.4749 21.973L12.532 21.9892C11.6216 21.9892 11.5891 22.0054 11.6866 22.3452C12.0117 23.3971 13.2961 24.5138 14.7267 24.9993L15.7347 25.3391L14.8568 25.857C13.5562 26.6014 12.028 27.0221 10.4998 27.0545C9.76821 27.0707 9.16669 27.1354 9.16669 27.184C9.16669 27.3458 11.1501 28.2521 12.3044 28.6081C15.7672 29.66 19.8804 29.2069 22.9693 27.4105C25.1641 26.1321 27.3588 23.5913 28.383 21.1315C28.9358 19.8207 29.4886 17.4256 29.4886 16.2766C29.4886 15.5322 29.5373 15.4351 30.4477 14.545C30.9842 14.0272 31.4882 13.4608 31.5858 13.2989C31.7483 12.9915 31.7321 12.9915 30.903 13.2666C29.5211 13.7521 29.326 13.6873 30.0088 12.9591C30.5128 12.4412 31.1143 11.5026 31.1143 11.2275C31.1143 11.179 30.8704 11.2599 30.5941 11.4055C30.3014 11.5674 29.6511 11.8101 29.1634 11.9557L28.2855 12.2309L27.4889 11.6968C27.0499 11.4055 26.4321 11.0819 26.107 10.9848C25.2779 10.7582 24.0098 10.7906 23.2619 11.0495C21.2297 11.7777 19.9454 13.655 20.0917 15.7102Z" fill="white"/>
</g>
<defs>
<clipPath id="clip0_0_3439">
<rect width="40" height="40" fill="white"/>
</clipPath>
</defs>
</svg>
