<svg width="20" height="20" viewBox="0 0 20 20" fill="none" xmlns="http://www.w3.org/2000/svg">
<g clip-path="url(#clip0_0_2629)">
<path d="M19.0879 4.20968C18.4323 4.49826 17.7281 4.69325 16.9878 4.78138C17.7517 4.32729 18.3232 3.6126 18.5956 2.77066C17.8779 3.19417 17.0925 3.49227 16.2733 3.65201C15.7225 3.06772 14.9929 2.68044 14.1978 2.5503C13.4027 2.42017 12.5867 2.55445 11.8763 2.93231C11.1659 3.31017 10.6009 3.91046 10.2691 4.63998C9.93734 5.36951 9.85726 6.18745 10.0413 6.96682C8.58711 6.89428 7.16449 6.51877 5.8658 5.86467C4.5671 5.21056 3.42137 4.29248 2.50294 3.17C2.18891 3.70817 2.00834 4.33213 2.00834 4.99665C2.00799 5.59487 2.15627 6.18393 2.44004 6.71156C2.7238 7.23919 3.13428 7.68909 3.63503 8.02132C3.05429 8.00296 2.48635 7.84706 1.9785 7.5666V7.6134C1.97844 8.45243 2.27058 9.26564 2.80534 9.91504C3.3401 10.5644 4.08455 11.01 4.91237 11.1762C4.37363 11.3211 3.8088 11.3424 3.26055 11.2386C3.49411 11.9606 3.94906 12.5919 4.56172 13.0442C5.17438 13.4965 5.91407 13.7471 6.67724 13.761C5.38172 14.7714 3.78176 15.3194 2.13473 15.317C1.84298 15.3171 1.55148 15.3002 1.26172 15.2663C2.93354 16.3342 4.87966 16.901 6.86723 16.8988C13.5954 16.8988 17.2735 11.3626 17.2735 6.56124C17.2735 6.40525 17.2696 6.2477 17.2626 6.09171C17.978 5.5777 18.5956 4.94119 19.0863 4.21202L19.0879 4.20968Z" fill="#1D1D1D"/>
</g>
<defs>
<clipPath id="clip0_0_2629">
<rect width="18.8421" height="18.7189" fill="white" transform="translate(0.525391 0.359375)"/>
</clipPath>
</defs>
</svg>
