<svg width="38" height="38" viewBox="0 0 38 38" fill="none" xmlns="http://www.w3.org/2000/svg">
<path d="M30.7275 11.04C31.1374 11.04 31.4697 10.7078 31.4697 10.2979V2.22656C31.4697 0.998836 30.4709 0 29.2432 0H2.22754C0.999812 0 0.000976562 0.998836 0.000976562 2.22656V35.7734C0.000976562 37.0012 0.999812 38 2.22754 38H29.2432C30.4709 38 31.4697 37.0012 31.4697 35.7734V30.3056C31.4697 29.8957 31.1374 29.5634 30.7275 29.5634C30.3177 29.5634 29.9854 29.8957 29.9854 30.3056V35.7734C29.9854 36.1827 29.6524 36.5156 29.2432 36.5156H2.22754C1.8183 36.5156 1.48535 36.1827 1.48535 35.7734V2.22656C1.48535 1.81732 1.8183 1.48438 2.22754 1.48438H29.2432C29.6524 1.48438 29.9854 1.81732 29.9854 2.22656V10.2979C29.9854 10.7078 30.3177 11.04 30.7275 11.04Z" fill="black"/>
<path d="M15.7351 4.00781C11.97 4.00781 8.90695 7.07089 8.90695 10.8359C8.90695 12.7892 9.73152 14.5532 11.0505 15.7989C11.0753 15.8253 11.1015 15.8503 11.1302 15.8731C12.3453 16.9848 13.9623 17.664 15.735 17.664C17.5077 17.664 19.1247 16.9847 20.3398 15.8731C20.3681 15.8503 20.3948 15.8255 20.4195 15.7989C21.7386 14.5532 22.5632 12.7892 22.5632 10.8359C22.5632 7.07089 19.5001 4.00781 15.7351 4.00781ZM15.7351 16.1797C14.5232 16.1797 13.4047 15.7736 12.5072 15.091C13.1595 13.9343 14.3768 13.2109 15.7351 13.2109C17.0934 13.2109 18.3106 13.9343 18.9629 15.091C18.0654 15.7736 16.947 16.1797 15.7351 16.1797ZM14.5476 10.5391V10.0566C14.5476 9.40188 15.0803 8.86914 15.7351 8.86914C16.3898 8.86914 16.9226 9.40188 16.9226 10.0566V10.5391C16.9226 11.1938 16.3898 11.7266 15.7351 11.7266C15.0803 11.7266 14.5476 11.1938 14.5476 10.5391ZM20.0353 14.0038C19.4936 13.199 18.7356 12.5636 17.8486 12.1708C18.1982 11.7191 18.407 11.1531 18.407 10.5391V10.0566C18.407 8.58332 17.2084 7.38477 15.7351 7.38477C14.2618 7.38477 13.0632 8.58332 13.0632 10.0566V10.5391C13.0632 11.1531 13.272 11.7191 13.6216 12.1708C12.7345 12.5636 11.9765 13.199 11.4348 14.0038C10.7796 13.1167 10.3913 12.021 10.3913 10.8359C10.3913 7.88938 12.7885 5.49219 15.7351 5.49219C18.6816 5.49219 21.0788 7.88938 21.0788 10.8359C21.0788 12.021 20.6906 13.1167 20.0353 14.0038ZM19.7429 32.5078H15.7351C15.3252 32.5078 14.9929 32.8401 14.9929 33.25C14.9929 33.6599 15.3252 33.9922 15.7351 33.9922H19.7429C20.1527 33.9922 20.4851 33.6599 20.4851 33.25C20.4851 32.8401 20.1527 32.5078 19.7429 32.5078ZM19.7429 28.3516H9.20383C8.79399 28.3516 8.46164 28.6838 8.46164 29.0938C8.46164 29.5037 8.79399 29.8359 9.20383 29.8359H19.7429C20.1527 29.8359 20.4851 29.5037 20.4851 29.0938C20.4851 28.6838 20.1527 28.3516 19.7429 28.3516ZM19.7429 24.1953H9.20383C8.79399 24.1953 8.46164 24.5276 8.46164 24.9375C8.46164 25.3474 8.79399 25.6797 9.20383 25.6797H19.7429C20.1527 25.6797 20.4851 25.3474 20.4851 24.9375C20.4851 24.5276 20.1527 24.1953 19.7429 24.1953ZM6.5586 20.2565C6.41893 20.1177 6.23013 20.0396 6.0332 20.0391C5.83793 20.0391 5.64645 20.1185 5.50848 20.2565C5.37043 20.3946 5.29102 20.5861 5.29102 20.7812C5.29102 20.9764 5.37036 21.1679 5.50848 21.306C5.64805 21.4445 5.83653 21.5227 6.0332 21.5234C6.22914 21.5234 6.41988 21.444 6.5586 21.306C6.69664 21.1679 6.77613 20.9764 6.77613 20.7812C6.77613 20.5861 6.69672 20.3946 6.5586 20.2565ZM6.5586 24.4128C6.41884 24.2741 6.23011 24.1959 6.0332 24.1953C5.83793 24.1953 5.64727 24.2747 5.50848 24.4128C5.37043 24.5508 5.29102 24.7423 5.29102 24.9375C5.29102 25.1327 5.37036 25.3242 5.50848 25.4622C5.64805 25.6008 5.83653 25.6789 6.0332 25.6797C6.22914 25.6797 6.41988 25.6003 6.5586 25.4622C6.69664 25.3242 6.77613 25.1327 6.77613 24.9375C6.77613 24.7423 6.69672 24.5508 6.5586 24.4128ZM6.5586 28.569C6.41884 28.4303 6.23011 28.3522 6.0332 28.3516C5.83793 28.3516 5.64727 28.431 5.50848 28.569C5.37043 28.7071 5.29102 28.8986 5.29102 29.0938C5.29102 29.2889 5.37036 29.4804 5.50848 29.6185C5.64796 29.7572 5.8365 29.8353 6.0332 29.8359C6.22914 29.8359 6.42062 29.7565 6.5586 29.6185C6.69664 29.4804 6.77613 29.2889 6.77613 29.0938C6.77613 28.8986 6.69672 28.7071 6.5586 28.569ZM19.7429 20.0391H9.20383C8.79399 20.0391 8.46164 20.3713 8.46164 20.7812C8.46164 21.1912 8.79399 21.5234 9.20383 21.5234H19.7429C20.1527 21.5234 20.4851 21.1912 20.4851 20.7812C20.4851 20.3713 20.1527 20.0391 19.7429 20.0391ZM36.4417 9.67219C35.7207 9.2559 34.8807 9.14531 34.0763 9.36077C33.2721 9.5763 32.5998 10.0921 32.1836 10.8132L22.8437 26.9901C22.7926 27.0788 22.7603 27.1771 22.7489 27.2789L22.0915 33.1677C22.0799 33.2714 22.0904 33.3765 22.1222 33.4759C22.154 33.5753 22.2064 33.667 22.276 33.7448C22.3456 33.8226 22.4308 33.8848 22.5261 33.9275C22.6214 33.9701 22.7246 33.9922 22.829 33.9923C22.9874 33.9923 23.1417 33.9417 23.2692 33.8477L28.0402 30.3339C28.1227 30.2732 28.1917 30.1961 28.2429 30.1074L37.5826 13.9304C38.4421 12.4419 37.9303 10.5316 36.4417 9.67219ZM23.7549 31.6464L24.0982 28.5714L26.2462 29.8116L23.7549 31.6464ZM27.3285 28.7224L24.5004 27.0895L31.9954 14.1079L34.8235 15.7408L27.3285 28.7224ZM36.2972 13.1882L35.5656 14.4553L32.7375 12.8225L33.4691 11.5553C33.5758 11.3693 33.7184 11.2062 33.8886 11.0757C34.0587 10.9451 34.2531 10.8495 34.4605 10.7946C34.6675 10.7385 34.8836 10.724 35.0963 10.752C35.309 10.78 35.514 10.8499 35.6995 10.9577C35.8855 11.0645 36.0486 11.2071 36.1792 11.3772C36.3097 11.5474 36.4053 11.7418 36.4602 11.9491C36.5163 12.1562 36.5308 12.3723 36.5028 12.585C36.4748 12.7977 36.4049 13.0027 36.2972 13.1882Z" fill="black"/>
</svg>
