<svg width="20" height="20" viewBox="0 0 20 20" fill="none" xmlns="http://www.w3.org/2000/svg">
<path d="M10.162 15.189H10.1463C10.0976 15.189 5.22773 15.1796 3.99907 14.8481C3.66709 14.7593 3.36442 14.5854 3.12137 14.3438C2.87833 14.1022 2.70343 13.8014 2.61418 13.4715C2.39324 12.2332 2.28655 10.9775 2.29543 9.71994C2.28973 8.46032 2.39931 7.2028 2.62281 5.9629C2.71458 5.63249 2.89029 5.33105 3.13308 5.08753C3.37587 4.84401 3.67759 4.66657 4.00928 4.57224C5.20418 4.26025 9.93981 4.26025 10.1408 4.26025H10.1573C10.2067 4.26025 15.0892 4.26961 16.3053 4.60109C16.9797 4.78282 17.5065 5.30617 17.6886 5.97615C17.9163 7.2194 18.0238 8.48059 18.0081 9.74412C18.0136 11.0022 17.9038 12.2582 17.68 13.4965C17.5896 13.826 17.414 14.1262 17.1706 14.3675C16.9272 14.6087 16.6246 14.7825 16.2927 14.8715C15.0994 15.1859 10.363 15.189 10.162 15.189ZM8.59182 7.38397L8.5879 12.0637L12.6798 9.72384L8.59182 7.38397Z" fill="#EDEDED"/>
</svg>
